<?xml version="1.0" encoding="UTF-8"?>
<svg width="431px" height="93px" viewBox="0 0 431 93" version="1.1" xmlns="http://www.w3.org/2000/svg" xmlns:xlink="http://www.w3.org/1999/xlink">
    <title>Group 5</title>
    <g id="Eltern-Helper" stroke="none" stroke-width="1" fill="none" fill-rule="evenodd">
        <g id="Artboard" transform="translate(-1488.000000, -3704.000000)">
            <g id="Group-5" transform="translate(1488.000000, 3704.000000)">
                <g id="for-Expats" transform="translate(307.634562, 72.600000)" fill="#000000" fill-rule="nonzero">
                    <path d="M3.30309375,15.4 L3.30309375,6.1510625 L0,6.1510625 L0,4.6440625 L3.30309375,4.6440625 L3.30309375,1.901625 C3.30309375,1.30991667 3.46946875,0.845052083 3.80221875,0.50703125 C4.13496875,0.169010417 4.60865625,0 5.22328125,0 L7.926875,0 L7.926875,1.507 L5.69146875,1.507 C5.25994792,1.507 5.0441875,1.727 5.0441875,2.167 L5.0441875,4.6440625 L8.43528125,4.6440625 L8.43528125,6.1510625 L5.0441875,6.1510625 L5.0441875,15.4 L3.30309375,15.4 Z" id="Path"></path>
                    <path d="M16.9531385,15.708 C15.8678052,15.708 14.9106906,15.4802083 14.0817948,15.024625 C13.252899,14.5690417 12.6073365,13.9258281 12.1451073,13.0949844 C11.6828781,12.2641406 11.4517635,11.2880625 11.4517635,10.16675 L11.4517635,9.8773125 C11.4517635,8.756 11.6828781,7.77997917 12.1451073,6.94925 C12.6073365,6.11852083 13.252899,5.47530729 14.0817948,5.01960938 C14.9106906,4.56391146 15.8678052,4.3360625 16.9531385,4.3360625 C18.0384719,4.3360625 18.9955865,4.56391146 19.8244823,5.01960938 C20.6533781,5.47530729 21.2989406,6.11852083 21.7611698,6.94925 C22.223399,7.77997917 22.4545135,8.756 22.4545135,9.8773125 L22.4545135,10.16675 C22.4545135,11.2880625 22.223399,12.2641406 21.7611698,13.0949844 C21.2989406,13.9258281 20.6533781,14.5690417 19.8244823,15.024625 C18.9955865,15.4802083 18.0384719,15.708 16.9531385,15.708 Z M16.9531385,14.150125 C18.0953052,14.150125 19.0075604,13.7866094 19.6899042,13.0595781 C20.3722479,12.3325469 20.7134198,11.3515417 20.7134198,10.1165625 L20.7134198,9.92784375 C20.7134198,8.69286458 20.3733365,7.71185938 19.6931698,6.98482813 C19.0130031,6.25779688 18.0996594,5.89428125 16.9531385,5.89428125 C15.8212844,5.89428125 14.9116073,6.25779688 14.2241073,6.98482813 C13.5366073,7.71185938 13.1928573,8.69286458 13.1928573,9.92784375 L13.1928573,10.1165625 C13.1928573,11.3515417 13.5366073,12.3325469 14.2241073,13.0595781 C14.9116073,13.7866094 15.8212844,14.150125 16.9531385,14.150125 Z" id="Shape"></path>
                    <path d="M27.1687274,15.4 L27.1687274,4.6440625 L28.8658212,4.6440625 L28.8658212,5.9544375 L29.1679774,5.9544375 C29.3604774,5.48304167 29.6541545,5.13946354 30.0490087,4.92370313 C30.4438628,4.70794271 30.9687691,4.6000625 31.6237274,4.6000625 L32.8969774,4.6000625 L32.8969774,6.1895625 L31.5016962,6.1895625 C30.7248212,6.1895625 30.0986233,6.40520833 29.6231024,6.8365 C29.1475816,7.26779167 28.9098212,7.93970833 28.9098212,8.85225 L28.9098212,15.4 L27.1687274,15.4 Z" id="Path"></path>
                    <polygon id="Path" points="44.2527375 15.4 44.2527375 0 53.7309563 0 53.7309563 1.67165625 46.09455 1.67165625 46.09455 6.829625 53.1149563 6.829625 53.1149563 8.5009375 46.09455 8.5009375 46.09455 13.7283438 53.831675 13.7283438 53.831675 15.4"></polygon>
                    <polygon id="Path" points="57.4263663 15.4 61.7455851 9.94675 57.5483976 4.6440625 59.6511163 4.6440625 62.8558976 8.80515625 63.1580538 8.80515625 66.3624913 4.6440625 68.4655538 4.6440625 64.2683663 9.94675 68.5875851 15.4 66.4563351 15.4 63.1580538 11.1010625 62.8558976 11.1010625 59.5576163 15.4"></polygon>
                    <path d="M72.9557635,19.8 L72.9557635,4.6440625 L74.6528573,4.6440625 L74.6528573,6.417125 L74.9550135,6.417125 C75.2460552,5.87720833 75.6998052,5.39538542 76.3162635,4.97165625 C76.9327219,4.54792708 77.8000031,4.3360625 78.9181073,4.3360625 C79.8501281,4.3360625 80.7005656,4.55760938 81.4694198,5.00070313 C82.238274,5.44379688 82.8526698,6.07813021 83.3126073,6.90370313 C83.7725448,7.72927604 84.0025135,8.72047917 84.0025135,9.8773125 L84.0025135,10.16675 C84.0025135,11.3132708 83.7751802,12.3018958 83.3205135,13.132625 C82.8658469,13.9633542 82.2540865,14.6002656 81.4852323,15.0433594 C80.7163781,15.4864531 79.8606698,15.708 78.9181073,15.708 C78.1749198,15.708 77.5431646,15.6101458 77.0228417,15.4144375 C76.5025188,15.2187292 76.0806802,14.9660729 75.757326,14.6564688 C75.4339719,14.3468646 75.181201,14.0309583 74.9990135,13.70875 L74.6968573,13.70875 L74.6968573,19.8 L72.9557635,19.8 Z M78.4571385,14.1628438 C79.5722635,14.1628438 80.4798781,13.8071198 81.1799823,13.0956719 C81.8800865,12.384224 82.2301385,11.3911875 82.2301385,10.1165625 L82.2301385,9.92784375 C82.2301385,8.65298958 81.8790552,7.65989583 81.1768885,6.9485625 C80.4747219,6.23722917 79.5681385,5.8815625 78.4571385,5.8815625 C77.356451,5.8815625 76.4524458,6.23722917 75.7451229,6.9485625 C75.0378,7.65989583 74.6841385,8.65298958 74.6841385,9.92784375 L74.6841385,10.1165625 C74.6841385,11.3911875 75.0378,12.384224 75.7451229,13.0956719 C76.4524458,13.8071198 77.356451,14.1628438 78.4571385,14.1628438 Z" id="Shape"></path>
                    <path d="M92.0266962,15.708 C91.270217,15.708 90.5865555,15.5775469 89.9757118,15.3166406 C89.364868,15.0557344 88.8824149,14.6727396 88.5283524,14.1676563 C88.1742899,13.6625729 87.9972587,13.0517292 87.9972587,12.335125 C87.9972587,11.60775 88.1742899,11.004125 88.5283524,10.52425 C88.8824149,10.044375 89.365441,9.68389583 89.9774305,9.4428125 C90.5894201,9.20172917 91.2748003,9.0811875 92.0335712,9.0811875 L95.6817899,9.0811875 L95.6817899,8.2933125 C95.6817899,7.52995833 95.4579514,6.928625 95.0102743,6.4893125 C94.5625972,6.05 93.8983003,5.83034375 93.0173837,5.83034375 C92.1509045,5.83034375 91.4734878,6.04008854 90.9851337,6.45957813 C90.4967795,6.87906771 90.1701024,7.43703125 90.0051024,8.13346875 L88.3588837,7.61921875 C88.5348837,7.00986458 88.8146389,6.45854688 89.1981493,5.96526563 C89.5816597,5.47198438 90.0919566,5.07713021 90.7290399,4.78070313 C91.3661233,4.48427604 92.1331441,4.3360625 93.0301024,4.3360625 C94.4048733,4.3360625 95.4763993,4.69023958 96.2446805,5.39859375 C97.0129618,6.10694792 97.3971024,7.10657292 97.3971024,8.39746875 L97.3971024,13.2642813 C97.3971024,13.7042813 97.6024358,13.9242813 98.0131024,13.9242813 L99.0024149,13.9242813 L99.0024149,15.4 L97.4668837,15.4 C96.9867795,15.4 96.6019514,15.2654219 96.3123993,14.9962656 C96.0228472,14.7271094 95.8780712,14.3621042 95.8780712,13.90125 L95.8780712,13.7854063 L95.6006649,13.7854063 C95.4482691,14.0654479 95.2356024,14.3563177 94.9626649,14.6580156 C94.6897274,14.9597135 94.317618,15.2101354 93.8463368,15.4092813 C93.3750555,15.6084271 92.7685087,15.708 92.0266962,15.708 Z M92.2295087,14.2137188 C93.2566337,14.2137188 94.0887951,13.9088698 94.725993,13.2991719 C95.363191,12.689474 95.6817899,11.8378333 95.6817899,10.74425 L95.6817899,10.4929688 L92.1067899,10.4929688 C91.4163108,10.4929688 90.8488941,10.6420417 90.4045399,10.9401875 C89.9601858,11.2383333 89.7380087,11.6895625 89.7380087,12.293875 C89.7380087,12.8981875 89.9675191,13.3692396 90.4265399,13.7070313 C90.8855608,14.0448229 91.4865503,14.2137188 92.2295087,14.2137188 Z" id="Shape"></path>
                    <path d="M106.233343,15.4 C105.618718,15.4 105.145031,15.2309896 104.812281,14.8929688 C104.479531,14.5549479 104.313156,14.0900833 104.313156,13.498375 L104.313156,6.1510625 L101.085343,6.1510625 L101.085343,4.6440625 L104.313156,4.6440625 L104.313156,0.8188125 L106.05425,0.8188125 L106.05425,4.6440625 L109.577343,4.6440625 L109.577343,6.1510625 L106.05425,6.1510625 L106.05425,13.233 C106.05425,13.673 106.27001,13.893 106.701531,13.893 L109.094718,13.893 L109.094718,15.4 L106.233343,15.4 Z" id="Path"></path>
                    <path d="M118.326535,15.708 C116.997598,15.708 115.875884,15.4 114.961394,14.784 C114.046905,14.168 113.489056,13.1891146 113.287848,11.8473438 L114.949535,11.484 C115.062743,12.1847917 115.281999,12.7365104 115.607301,13.1391563 C115.932603,13.5418021 116.332155,13.8288906 116.805957,14.0004219 C117.279759,14.1719531 117.786618,14.2577188 118.326535,14.2577188 C119.138473,14.2577188 119.779165,14.0971875 120.248613,13.776125 C120.718061,13.4550625 120.952785,13.0217083 120.952785,12.4760625 C120.952785,11.9201042 120.730608,11.527026 120.286254,11.2968281 C119.8419,11.0666302 119.229337,10.8824375 118.448566,10.74425 L117.551379,10.5875 C116.851275,10.4616875 116.217113,10.2756615 115.648894,10.0294219 C115.080676,9.78318229 114.629332,9.4483125 114.294863,9.0248125 C113.960394,8.6013125 113.79316,8.06666667 113.79316,7.420875 C113.79316,6.450125 114.165728,5.69330208 114.910863,5.15040625 C115.655999,4.60751042 116.642733,4.3360625 117.871066,4.3360625 C119.0884,4.3360625 120.076967,4.61003125 120.836769,5.15796875 C121.596571,5.70590625 122.080285,6.47716667 122.28791,7.47175 L120.666785,7.88871875 C120.528598,7.12307292 120.212176,6.58126563 119.717519,6.26329688 C119.222863,5.94532813 118.607379,5.78634375 117.871066,5.78634375 C117.145066,5.78634375 116.569858,5.92229688 116.145441,6.19420313 C115.721025,6.46610938 115.508816,6.86228125 115.508816,7.38271875 C115.508816,7.90132292 115.707561,8.28139583 116.105051,8.5229375 C116.50254,8.76447917 117.044348,8.94494792 117.730473,9.06434375 L118.62766,9.22109375 C119.386431,9.34690625 120.070837,9.52559896 120.680879,9.75717188 C121.29092,9.98874479 121.774691,10.3151927 122.132191,10.7365156 C122.489691,11.1578385 122.668441,11.7185521 122.668441,12.4186563 C122.668441,13.4689271 122.27754,14.2797188 121.495738,14.8510313 C120.713936,15.4223438 119.657535,15.708 118.326535,15.708 Z" id="Path"></path>
                </g>
                <g id="Elterngeld-Guide" transform="translate(80.472000, 18.872000)" fill="#000000" fill-rule="nonzero">
                    <polygon id="Path" points="0 37.128 0 0.728 21.996 0.728 21.996 3.744 3.328 3.744 3.328 17.368 20.54 17.368 20.54 20.384 3.328 20.384 3.328 34.112 22.204 34.112 22.204 37.128"></polygon>
                    <polygon id="Path" points="25.688 37.128 25.688 0.728 28.808 0.728 28.808 37.128"></polygon>
                    <path d="M43.212,37.128 C41.86,37.128 40.846,36.7813333 40.17,36.088 C39.494,35.3946667 39.156,34.424 39.156,33.176 L39.156,14.664 L31.044,14.664 L31.044,11.856 L39.156,11.856 L39.156,2.392 L42.276,2.392 L42.276,11.856 L51.116,11.856 L51.116,14.664 L42.276,14.664 L42.276,32.76 C42.276,33.8 42.796,34.32 43.836,34.32 L49.764,34.32 L49.764,37.128 L43.212,37.128 Z" id="Path"></path>
                    <path d="M64.896,37.856 C62.296,37.856 60.034,37.31 58.11,36.218 C56.186,35.126 54.6866667,33.592 53.612,31.616 C52.5373333,29.64 52,27.3693333 52,24.804 L52,24.18 C52,21.58 52.5373333,19.3006667 53.612,17.342 C54.6866667,15.3833333 56.1686667,13.858 58.058,12.766 C59.9473333,11.674 62.1053333,11.128 64.532,11.128 C66.8893333,11.128 68.978,11.622 70.798,12.61 C72.618,13.598 74.048,15.0193333 75.088,16.874 C76.128,18.7286667 76.648,20.9386667 76.648,23.504 L76.648,25.168 L55.12,25.168 C55.224,28.3226667 56.186,30.758 58.006,32.474 C59.826,34.19 62.1226667,35.048 64.896,35.048 C67.2533333,35.048 69.082,34.5106667 70.382,33.436 C71.682,32.3613333 72.6786667,31.044 73.372,29.484 L76.18,30.732 C75.66,31.876 74.9406667,32.994 74.022,34.086 C73.1033333,35.178 71.916,36.0793333 70.46,36.79 C69.004,37.5006667 67.1493333,37.856 64.896,37.856 Z M55.172,22.464 L73.476,22.464 C73.3373333,19.7253333 72.4533333,17.6193333 70.824,16.146 C69.1946667,14.6726667 67.0973333,13.936 64.532,13.936 C62.0013333,13.936 59.904,14.6726667 58.24,16.146 C56.576,17.6193333 55.5533333,19.7253333 55.172,22.464 Z" id="Shape"></path>
                    <path d="M80.444,37.128 L80.444,11.856 L83.46,11.856 L83.46,15.028 L84.084,15.028 C84.5693333,13.884 85.2886667,13.052 86.242,12.532 C87.1953333,12.012 88.5213333,11.752 90.22,11.752 L93.184,11.752 L93.184,14.664 L89.856,14.664 C87.9493333,14.664 86.424,15.2013333 85.28,16.276 C84.136,17.3506667 83.564,19.032 83.564,21.32 L83.564,37.128 L80.444,37.128 Z" id="Path"></path>
                    <path d="M95.732,37.128 L95.732,11.856 L98.748,11.856 L98.748,16.536 L99.372,16.536 C99.996,15.184 101.018667,13.9793333 102.44,12.922 C103.861333,11.8646667 105.924,11.336 108.628,11.336 C110.465333,11.336 112.146667,11.7173333 113.672,12.48 C115.197333,13.2426667 116.419333,14.3953333 117.338,15.938 C118.256667,17.4806667 118.716,19.4133333 118.716,21.736 L118.716,37.128 L115.596,37.128 L115.596,21.944 C115.596,19.1706667 114.902667,17.1773333 113.516,15.964 C112.129333,14.7506667 110.274667,14.144 107.952,14.144 C105.352,14.144 103.185333,15.002 101.452,16.718 C99.7186667,18.434 98.852,21.0253333 98.852,24.492 L98.852,37.128 L95.732,37.128 Z" id="Path"></path>
                    <path d="M122.408,24.596 L122.408,23.972 C122.408,21.3026667 122.954,19.0146667 124.046,17.108 C125.138,15.2013333 126.602667,13.728 128.44,12.688 C130.277333,11.648 132.322667,11.128 134.576,11.128 C137.349333,11.128 139.507333,11.674 141.05,12.766 C142.592667,13.858 143.728,15.0973333 144.456,16.484 L145.08,16.484 L145.08,11.856 L147.992,11.856 L147.992,43.576 C147.992,44.824 147.662667,45.7946667 147.004,46.488 C146.345333,47.1813333 145.34,47.528 143.988,47.528 L126.724,47.528 L126.724,44.72 L143.364,44.72 C144.438667,44.72 144.976,44.2 144.976,43.16 L144.976,32.292 L144.352,32.292 C143.901333,33.124 143.268667,33.9386667 142.454,34.736 C141.639333,35.5333333 140.590667,36.1833333 139.308,36.686 C138.025333,37.1886667 136.448,37.44 134.576,37.44 C132.322667,37.44 130.268667,36.92 128.414,35.88 C126.559333,34.84 125.094667,33.358 124.02,31.434 C122.945333,29.51 122.408,27.2306667 122.408,24.596 Z M135.304,34.632 C138.181333,34.632 140.512667,33.7306667 142.298,31.928 C144.083333,30.1253333 144.976,27.6466667 144.976,24.492 L144.976,24.076 C144.976,20.8866667 144.083333,18.3993333 142.298,16.614 C140.512667,14.8286667 138.181333,13.936 135.304,13.936 C132.461333,13.936 130.138667,14.8286667 128.336,16.614 C126.533333,18.3993333 125.632,20.8866667 125.632,24.076 L125.632,24.492 C125.632,27.6466667 126.533333,30.1253333 128.336,31.928 C130.138667,33.7306667 132.461333,34.632 135.304,34.632 Z" id="Shape"></path>
                    <path d="M164.892,37.856 C162.292,37.856 160.03,37.31 158.106,36.218 C156.182,35.126 154.682667,33.592 153.608,31.616 C152.533333,29.64 151.996,27.3693333 151.996,24.804 L151.996,24.18 C151.996,21.58 152.533333,19.3006667 153.608,17.342 C154.682667,15.3833333 156.164667,13.858 158.054,12.766 C159.943333,11.674 162.101333,11.128 164.528,11.128 C166.885333,11.128 168.974,11.622 170.794,12.61 C172.614,13.598 174.044,15.0193333 175.084,16.874 C176.124,18.7286667 176.644,20.9386667 176.644,23.504 L176.644,25.168 L155.116,25.168 C155.22,28.3226667 156.182,30.758 158.002,32.474 C159.822,34.19 162.118667,35.048 164.892,35.048 C167.249333,35.048 169.078,34.5106667 170.378,33.436 C171.678,32.3613333 172.674667,31.044 173.368,29.484 L176.176,30.732 C175.656,31.876 174.936667,32.994 174.018,34.086 C173.099333,35.178 171.912,36.0793333 170.456,36.79 C169,37.5006667 167.145333,37.856 164.892,37.856 Z M155.168,22.464 L173.472,22.464 C173.333333,19.7253333 172.449333,17.6193333 170.82,16.146 C169.190667,14.6726667 167.093333,13.936 164.528,13.936 C161.997333,13.936 159.9,14.6726667 158.236,16.146 C156.572,17.6193333 155.549333,19.7253333 155.168,22.464 Z" id="Shape"></path>
                    <polygon id="Path" points="180.44 37.128 180.44 0.728 183.56 0.728 183.56 37.128"></polygon>
                    <path d="M199.732,37.856 C197.478667,37.856 195.433333,37.3273333 193.596,36.27 C191.758667,35.2126667 190.294,33.7046667 189.202,31.746 C188.11,29.7873333 187.564,27.4733333 187.564,24.804 L187.564,24.18 C187.564,21.5106667 188.101333,19.1966667 189.176,17.238 C190.250667,15.2793333 191.715333,13.7713333 193.57,12.714 C195.424667,11.6566667 197.478667,11.128 199.732,11.128 C201.604,11.128 203.181333,11.3793333 204.464,11.882 C205.746667,12.3846667 206.795333,13.026 207.61,13.806 C208.424667,14.586 209.057333,15.4093333 209.508,16.276 L210.132,16.276 L210.132,0.728 L213.252,0.728 L213.252,37.128 L210.236,37.128 L210.236,32.5 L209.612,32.5 C208.884,33.8866667 207.748667,35.126 206.206,36.218 C204.663333,37.31 202.505333,37.856 199.732,37.856 Z M200.46,35.048 C203.337333,35.048 205.668667,34.1293333 207.454,32.292 C209.239333,30.4546667 210.132,27.924 210.132,24.7 L210.132,24.284 C210.132,21.06 209.239333,18.5293333 207.454,16.692 C205.668667,14.8546667 203.337333,13.936 200.46,13.936 C197.617333,13.936 195.294667,14.8546667 193.492,16.692 C191.689333,18.5293333 190.788,21.06 190.788,24.284 L190.788,24.7 C190.788,27.924 191.689333,30.4546667 193.492,32.292 C195.294667,34.1293333 197.617333,35.048 200.46,35.048 Z" id="Shape"></path>
                    <path d="M239.46,37.856 C236.964,37.856 234.702,37.2926667 232.674,36.166 C230.646,35.0393333 229.034,33.3926667 227.838,31.226 C226.642,29.0593333 226.044,26.416 226.044,23.296 L226.044,14.56 C226.044,9.88 227.361333,6.28333333 229.996,3.77 C232.630667,1.25666667 236.201333,0 240.708,0 C245.18,0 248.638,1.18733333 251.082,3.562 C253.526,5.93666667 254.748,9.152 254.748,13.208 L254.748,13.416 L247.988,13.416 L247.988,13 C247.988,11.7173333 247.719333,10.556 247.182,9.516 C246.644667,8.476 245.838667,7.65266667 244.764,7.046 C243.689333,6.43933333 242.337333,6.136 240.708,6.136 C238.281333,6.136 236.374667,6.88133333 234.988,8.372 C233.601333,9.86266667 232.908,11.8906667 232.908,14.456 L232.908,23.4 C232.908,25.9306667 233.601333,27.9673333 234.988,29.51 C236.374667,31.0526667 238.316,31.824 240.812,31.824 C243.308,31.824 245.128,31.1653333 246.272,29.848 C247.416,28.5306667 247.988,26.8666667 247.988,24.856 L247.988,24.336 L239.356,24.336 L239.356,18.512 L254.748,18.512 L254.748,37.128 L248.404,37.128 L248.404,33.644 L247.468,33.644 C247.225333,34.2333333 246.835333,34.8573333 246.298,35.516 C245.760667,36.1746667 244.954667,36.7293333 243.88,37.18 C242.805333,37.6306667 241.332,37.856 239.46,37.856 Z" id="Path"></path>
                    <path d="M267.436,37.544 C265.425333,37.544 263.666,37.0846667 262.158,36.166 C260.65,35.2473333 259.48,33.9733333 258.648,32.344 C257.816,30.7146667 257.4,28.8426667 257.4,26.728 L257.4,11.336 L263.952,11.336 L263.952,26.208 C263.952,28.1493333 264.428667,29.6053333 265.382,30.576 C266.335333,31.5466667 267.696,32.032 269.464,32.032 C271.474667,32.032 273.034667,31.3646667 274.144,30.03 C275.253333,28.6953333 275.808,26.832 275.808,24.44 L275.808,11.336 L282.36,11.336 L282.36,37.128 L275.912,37.128 L275.912,33.748 L274.976,33.748 C274.56,34.6146667 273.78,35.464 272.636,36.296 C271.492,37.128 269.758667,37.544 267.436,37.544 Z" id="Path"></path>
                    <path d="M285.74,37.128 L285.74,11.336 L292.292,11.336 L292.292,37.128 L285.74,37.128 Z M289.016,8.32 C287.837333,8.32 286.840667,7.93866667 286.026,7.176 C285.211333,6.41333333 284.804,5.408 284.804,4.16 C284.804,2.912 285.211333,1.90666667 286.026,1.144 C286.840667,0.381333333 287.837333,0 289.016,0 C290.229333,0 291.234667,0.381333333 292.032,1.144 C292.829333,1.90666667 293.228,2.912 293.228,4.16 C293.228,5.408 292.829333,6.41333333 292.032,7.176 C291.234667,7.93866667 290.229333,8.32 289.016,8.32 Z" id="Shape"></path>
                    <path d="M306.072,37.856 C304.026667,37.856 302.111333,37.3446667 300.326,36.322 C298.540667,35.2993333 297.110667,33.8 296.036,31.824 C294.961333,29.848 294.424,27.456 294.424,24.648 L294.424,23.816 C294.424,21.008 294.961333,18.616 296.036,16.64 C297.110667,14.664 298.532,13.1646667 300.3,12.142 C302.068,11.1193333 303.992,10.608 306.072,10.608 C307.632,10.608 308.940667,10.79 309.998,11.154 C311.055333,11.518 311.913333,11.9773333 312.572,12.532 C313.230667,13.0866667 313.733333,13.676 314.08,14.3 L315.016,14.3 L315.016,0.728 L321.568,0.728 L321.568,37.128 L315.12,37.128 L315.12,34.008 L314.184,34.008 C313.594667,34.9786667 312.684667,35.8626667 311.454,36.66 C310.223333,37.4573333 308.429333,37.856 306.072,37.856 Z M308.048,32.136 C310.058667,32.136 311.74,31.486 313.092,30.186 C314.444,28.886 315.12,26.988 315.12,24.492 L315.12,23.972 C315.12,21.476 314.452667,19.578 313.118,18.278 C311.783333,16.978 310.093333,16.328 308.048,16.328 C306.037333,16.328 304.356,16.978 303.004,18.278 C301.652,19.578 300.976,21.476 300.976,23.972 L300.976,24.492 C300.976,26.988 301.652,28.886 303.004,30.186 C304.356,31.486 306.037333,32.136 308.048,32.136 Z" id="Shape"></path>
                    <path d="M336.7,37.856 C334.134667,37.856 331.872667,37.31 329.914,36.218 C327.955333,35.126 326.43,33.5833333 325.338,31.59 C324.246,29.5966667 323.7,27.248 323.7,24.544 L323.7,23.92 C323.7,21.216 324.237333,18.8673333 325.312,16.874 C326.386667,14.8806667 327.894667,13.338 329.836,12.246 C331.777333,11.154 334.030667,10.608 336.596,10.608 C339.126667,10.608 341.328,11.1713333 343.2,12.298 C345.072,13.4246667 346.528,14.9846667 347.568,16.978 C348.608,18.9713333 349.128,21.2853333 349.128,23.92 L349.128,26.156 L330.356,26.156 C330.425333,27.924 331.084,29.3626667 332.332,30.472 C333.58,31.5813333 335.105333,32.136 336.908,32.136 C338.745333,32.136 340.097333,31.7373333 340.964,30.94 C341.830667,30.1426667 342.489333,29.2586667 342.94,28.288 L348.296,31.096 C347.810667,31.9973333 347.108667,32.9766667 346.19,34.034 C345.271333,35.0913333 344.049333,35.9926667 342.524,36.738 C340.998667,37.4833333 339.057333,37.856 336.7,37.856 Z M330.408,21.268 L342.472,21.268 C342.333333,19.7773333 341.735333,18.5813333 340.678,17.68 C339.620667,16.7786667 338.242667,16.328 336.544,16.328 C334.776,16.328 333.372,16.7786667 332.332,17.68 C331.292,18.5813333 330.650667,19.7773333 330.408,21.268 Z" id="Shape"></path>
                </g>
                <g id="Group-6">
                    <g id="Body" fill="#C0630B" fill-rule="nonzero">
                        <path d="M56,28 L56,28 C56,12.5236364 43.4763636,0 28,0 L28,0 C12.5236364,0 0,12.5236364 0,28 L0,56 L28,56 C43.4763636,56 56,43.4763636 56,28 Z" id="Shape"></path>
                    </g>
                    <g id="Eyes" transform="translate(17.714177, 16.182662)">
                        <ellipse id="Oval" fill="#FFFFFF" cx="6.58013314" cy="7.45307276" rx="6.58013314" ry="7.45307276"></ellipse>
                        <ellipse id="Oval-Copy-3" fill="#FFFFFF" cx="22.2875477" cy="7.45307276" rx="6.58013314" ry="7.45307276"></ellipse>
                        <ellipse id="Oval" fill="#000000" cx="7.64144494" cy="8.73074237" rx="3.39619775" ry="3.62006391"></ellipse>
                        <ellipse id="Oval-Copy-4" fill="#000000" cx="23.7733842" cy="8.73074237" rx="3.39619775" ry="3.62006391"></ellipse>
                    </g>
                </g>
            </g>
        </g>
    </g>
</svg>