<?xml version="1.0" encoding="UTF-8"?>
<svg width="255px" height="40px" viewBox="0 0 255 40" version="1.1" xmlns="http://www.w3.org/2000/svg" xmlns:xlink="http://www.w3.org/1999/xlink">
    <title>Elterngeld Helper Copy 2</title>
    <g id="Eltern-Helper" stroke="none" stroke-width="1" fill="none" fill-rule="evenodd">
        <g id="Artboard" transform="translate(-15200.000000, -3486.000000)" fill="#000000" fill-rule="nonzero">
            <g id="Elterngeld-Helper-Copy-2" transform="translate(15200.282500, 3486.035937)">
                <path d="M5.041875,15.49875 L12.4865625,15.49875 C13.3190625,15.49875 13.9001562,15.3338021 14.2298437,15.0039062 C14.5595312,14.6740104 14.7527083,14.04125 14.809375,13.105625 C14.8325,12.9139583 14.881875,12.7661458 14.9575,12.6621875 C15.033125,12.5582292 15.145,12.4929167 15.293125,12.46625 C15.5935417,12.4091667 15.7939583,12.58 15.894375,12.97875 L17.411875,18.5675 C17.4629167,18.7579167 17.4632812,18.9109896 17.4129687,19.0267187 C17.3626562,19.1424479 17.258125,19.2208333 17.099375,19.261875 C16.9535417,19.2935417 16.8177083,19.2802604 16.691875,19.2220312 C16.5660417,19.1638021 16.4588542,19.06 16.3703125,18.910625 C16.0494792,18.2675 15.7495312,17.7789583 15.4704687,17.445 C15.1914062,17.1110417 14.8801562,16.8828125 14.5367187,16.7603125 C14.1932812,16.6378125 13.7647917,16.5765625 13.25125,16.5765625 L5.041875,16.5765625 L5.041875,15.49875 Z M0,2.4215625 C0,2.2740625 0.0521875,2.1609375 0.1565625,2.0821875 C0.2609375,2.0034375 0.424166667,1.9640625 0.64625,1.9640625 L15.9225,1.9640625 C16.26375,1.9640625 16.5479687,1.891875 16.7751562,1.7475 C17.0023437,1.603125 17.2127083,1.46098958 17.40625,1.32109375 C17.5997917,1.18119792 17.8060417,1.11125 18.025,1.11125 C18.219375,1.11125 18.3707812,1.16427083 18.4792187,1.2703125 C18.5876562,1.37635417 18.6775,1.56385417 18.74875,1.8328125 L20.254375,7.4628125 C20.31,7.6415625 20.3065104,7.79104167 20.2439062,7.91125 C20.1813021,8.03145833 20.0683333,8.11322917 19.905,8.1565625 C19.7322917,8.19489583 19.5720312,8.17869792 19.4242187,8.10796875 C19.2764062,8.03723958 19.1572917,7.90197917 19.066875,7.7021875 C18.6277083,6.6896875 18.2269271,5.87604167 17.8645312,5.26125 C17.5021354,4.64645833 17.1353646,4.17890625 16.7642187,3.85859375 C16.3930729,3.53828125 15.9826562,3.32380208 15.5329687,3.21515625 C15.0832812,3.10651042 14.5494792,3.0521875 13.9315625,3.0521875 L6.1703125,3.0521875 L6.1703125,27.44375 C6.1703125,27.925625 6.33140625,28.2847917 6.65359375,28.52125 C6.97578125,28.7577083 7.48541667,28.8759375 8.1825,28.8759375 L14.44375,28.8759375 C15.25375,28.8759375 15.9352083,28.7364583 16.488125,28.4575 C17.0410417,28.1785417 17.5769271,27.6150521 18.0957812,26.7670312 C18.6146354,25.9190104 19.2151042,24.6402083 19.8971875,22.930625 C19.9719792,22.7620833 20.064375,22.6444792 20.174375,22.5778125 C20.284375,22.5111458 20.4095833,22.485 20.55,22.499375 C20.7327083,22.5154167 20.8605208,22.5870312 20.9334375,22.7142187 C21.0063542,22.8414062 21.015,23.01625 20.959375,23.23875 L19.3690625,29.9428125 C19.3001042,30.2055208 19.2041667,30.3968229 19.08125,30.5167187 C18.9583333,30.6366146 18.7907292,30.6965625 18.5784375,30.6965625 C18.3759375,30.6965625 18.1754687,30.6355208 17.9770312,30.5134375 C17.7785937,30.3913542 17.5582292,30.2692708 17.3159375,30.1471875 C17.0736458,30.0251042 16.7778125,29.9640625 16.4284375,29.9640625 L0.64625,29.9640625 C0.424166667,29.9640625 0.2609375,29.9215104 0.1565625,29.8364062 C0.0521875,29.7513021 0,29.6413542 0,29.5065625 C0,29.2421875 0.19625,29.0691667 0.58875,28.9875 L2.185,28.745 C2.48458333,28.690625 2.71447917,28.5867187 2.8746875,28.4332812 C3.03489583,28.2798437 3.115,28.0773958 3.115,27.8259375 L3.115,4.1021875 C3.115,3.85072917 3.03489583,3.6478125 2.8746875,3.4934375 C2.71447917,3.3390625 2.48458333,3.235625 2.185,3.183125 L0.58875,2.940625 C0.19625,2.85895833 0,2.6859375 0,2.4215625 Z" id="Shape"></path>
                <path d="M27.8786261,1.4140625 L27.8786261,27.864375 C27.8786261,28.1458333 27.9497199,28.3654167 28.0919074,28.523125 C28.2340949,28.6808333 28.437897,28.7877083 28.7033136,28.84375 L29.8139386,29.043125 C30.011022,29.08375 30.1582616,29.1427083 30.2556574,29.22 C30.3530532,29.2972917 30.4017511,29.4017708 30.4017511,29.5334375 C30.4017511,29.6617708 30.3485741,29.765625 30.2422199,29.845 C30.1358657,29.924375 29.9763345,29.9640625 29.7636261,29.9640625 L23.1905011,29.9640625 C22.9905011,29.9640625 22.8394595,29.924375 22.7373761,29.845 C22.6352928,29.765625 22.5842511,29.6617708 22.5842511,29.5334375 C22.5842511,29.4126042 22.6324803,29.3126042 22.7289386,29.2334375 C22.825397,29.1542708 22.9693553,29.0935417 23.1608136,29.05125 L24.3198761,28.84375 C24.5857095,28.77875 24.7896157,28.671875 24.9315949,28.523125 C25.0735741,28.374375 25.1445636,28.1610417 25.1445636,27.883125 L25.1445636,3.58125 C25.1445636,3.349375 25.1016991,3.17963542 25.0159699,3.07203125 C24.9302407,2.96442708 24.7817511,2.905 24.5705011,2.89375 L22.8876886,2.8703125 C22.7020636,2.8546875 22.5700324,2.81489583 22.4915949,2.7509375 C22.4131574,2.68697917 22.3739386,2.60416667 22.3739386,2.5025 C22.3739386,2.38854167 22.4149803,2.29229167 22.4970636,2.21375 C22.579147,2.13520833 22.7262303,2.06135417 22.9383136,1.9921875 L26.0023761,0.990625 C26.3063345,0.885416667 26.5514386,0.811979167 26.7376886,0.7703125 C26.9239386,0.728645833 27.077272,0.7078125 27.1976886,0.7078125 C27.429147,0.7078125 27.6005011,0.76828125 27.7117511,0.88921875 C27.8230011,1.01015625 27.8786261,1.18510417 27.8786261,1.4140625 Z" id="Path"></path>
                <path d="M33.0360504,12.7671875 L31.7201129,12.4865625 C31.4128213,12.4103125 31.2070921,12.3283854 31.1029254,12.2407812 C30.9987588,12.1531771 30.9466754,12.0525 30.9466754,11.93875 C30.9466754,11.806875 30.9948525,11.7065625 31.0912067,11.6378125 C31.1875609,11.5690625 31.3209463,11.5346875 31.4913629,11.5346875 L32.9126129,11.5346875 C33.2628213,11.5346875 33.5355296,11.4868229 33.7307379,11.3910937 C33.9259463,11.2953646 34.0726129,11.1178125 34.1707379,10.8584375 L35.3298004,7.9709375 C35.4370921,7.73760417 35.5517275,7.5696875 35.6737067,7.4671875 C35.7956859,7.3646875 35.9342796,7.3134375 36.0894879,7.3134375 C36.2503213,7.3134375 36.3734463,7.36125 36.4588629,7.456875 C36.5442796,7.5525 36.5869879,7.68479167 36.5869879,7.85375 L36.5869879,25.8959375 C36.5869879,26.8067708 36.7849567,27.4994271 37.1808942,27.9739062 C37.5768317,28.4483854 38.1200088,28.685625 38.8104254,28.685625 C39.2608421,28.685625 39.6201129,28.6230729 39.8882379,28.4979687 C40.1563629,28.3728646 40.3704254,28.2221354 40.5304254,28.0457813 C40.6904254,27.8694271 40.8350088,27.7065104 40.9641754,27.5570312 C41.0933421,27.4075521 41.2387588,27.3084375 41.4004254,27.2596875 C41.5208421,27.2509375 41.6130817,27.283125 41.6771442,27.35625 C41.7412067,27.429375 41.7710504,27.5457292 41.7666754,27.7053125 C41.7306338,28.1240625 41.5475609,28.5264583 41.2174567,28.9125 C40.8873525,29.2985417 40.4403213,29.6165104 39.8763629,29.8664062 C39.3124046,30.1163021 38.6671963,30.24125 37.9407379,30.24125 C36.7157379,30.24125 35.7297484,29.9142708 34.9827692,29.2603125 C34.23579,28.6063542 33.8623004,27.615625 33.8623004,26.288125 L33.8623004,13.7715625 C33.8623004,13.4926042 33.8024567,13.2749479 33.6827692,13.1185937 C33.5630817,12.9622396 33.3475088,12.8451042 33.0360504,12.7671875 Z M35.1404254,12.580625 L35.1482379,11.5346875 L41.0216754,11.5346875 C41.2266754,11.5346875 41.3784463,11.5692708 41.4769879,11.6384375 C41.5755296,11.7076042 41.6248004,11.8139583 41.6248004,11.9575 C41.6248004,12.1397917 41.5292275,12.2892188 41.3380817,12.4057813 C41.1469359,12.5223438 40.8571963,12.580625 40.4688629,12.580625 L35.1404254,12.580625 Z" id="Shape"></path>
                <path d="M59.2547356,18.5290625 C59.2547356,18.9767708 59.1159335,19.3169271 58.8383294,19.5495313 C58.5607252,19.7821354 58.1511939,19.8984375 57.6097356,19.8984375 L44.6394231,19.8984375 L44.6394231,18.9915625 L55.5106731,18.9915625 C56.0852564,18.9915625 56.3725481,18.7425 56.3725481,18.244375 C56.3725481,16.395 55.9328606,14.9251042 55.0534856,13.8346875 C54.1741106,12.7442708 52.9965064,12.1990625 51.5206731,12.1990625 C50.3283814,12.1990625 49.2886939,12.5263021 48.4016106,13.1807813 C47.5145273,13.8352604 46.8248398,14.7490625 46.3325481,15.9221875 C45.8402564,17.0953125 45.5941106,18.4570833 45.5941106,20.0075 C45.5941106,22.735 46.2496835,24.8273438 47.5608294,26.2845313 C48.8719752,27.7417188 50.5670273,28.4703125 52.6459856,28.4703125 C54.0818189,28.4703125 55.3206731,28.1036979 56.3625481,27.3704688 C57.4044231,26.6372396 58.0739023,25.7015625 58.3709856,24.5634375 C58.4553606,24.3996875 58.5357773,24.2860417 58.6122356,24.2225 C58.6886939,24.1589583 58.7793189,24.1271875 58.8841106,24.1271875 C59.0228606,24.1271875 59.1225481,24.1802604 59.1831731,24.2864063 C59.2437981,24.3925521 59.2686939,24.519375 59.2578606,24.666875 C59.1443189,25.7329167 58.751871,26.6997396 58.0805169,27.5673438 C57.4091627,28.4349479 56.531246,29.1224479 55.4467669,29.6298438 C54.3622877,30.1372396 53.1431731,30.3909375 51.7894231,30.3909375 C50.0190064,30.3909375 48.4704127,30.0084375 47.1436419,29.2434375 C45.816871,28.4784375 44.788121,27.3971354 44.0573919,25.9995313 C43.3266627,24.6019271 42.9612981,22.9598958 42.9612981,21.0734375 C42.9612981,19.2042708 43.3272356,17.525 44.0591106,16.035625 C44.7909856,14.54625 45.8233294,13.3640625 47.1561419,12.4890625 C48.4889544,11.6140625 50.0578606,11.1765625 51.8628606,11.1765625 C53.3276523,11.1765625 54.6149439,11.4879688 55.7247356,12.1107813 C56.8345273,12.7335938 57.7003085,13.5966667 58.3220794,14.7 C58.9438502,15.8033333 59.2547356,17.0796875 59.2547356,18.5290625 Z" id="Path"></path>
                <path d="M65.6669249,19.8521875 C65.6669249,18.0028125 65.9456229,16.4325 66.5030187,15.14125 C67.0604145,13.85 67.7790604,12.8672396 68.6589562,12.1929687 C69.538852,11.5186979 70.4640083,11.1815625 71.4344249,11.1815625 C72.5392166,11.1815625 73.4002062,11.4776042 74.0173937,12.0696875 C74.6345812,12.6617708 74.9431749,13.4448958 74.9431749,14.4190625 C74.9431749,15.0501042 74.8018729,15.5377604 74.5192687,15.8820312 C74.2366645,16.2263021 73.8736958,16.3984375 73.4303624,16.3984375 C72.9872374,16.3984375 72.6343208,16.2658333 72.3716124,16.000625 C72.1089041,15.7354167 71.9767166,15.3596875 71.9750499,14.8734375 L71.9737999,14.2621875 C71.9710916,13.7698958 71.8535916,13.4065625 71.6212999,13.1721875 C71.3890083,12.9378125 71.0019249,12.820625 70.4600499,12.820625 C69.7917166,12.820625 69.1342687,13.0884375 68.4877062,13.6240625 C67.8411437,14.1596875 67.3091124,14.9533333 66.8916124,16.005 C66.4741124,17.0566667 66.2653624,18.3680208 66.2653624,19.9390625 L65.6669249,19.8521875 Z M66.1719249,12.093125 L66.2653624,17.261875 L66.2653624,27.8578125 C66.2653624,28.1269792 66.3412999,28.3406771 66.4931749,28.4989063 C66.6450499,28.6571354 66.8769249,28.7554167 67.1887999,28.79375 L69.0934874,29.0303125 C69.3057791,29.0548958 69.4649979,29.1075521 69.5711437,29.1882812 C69.6772895,29.2690104 69.7303624,29.3829167 69.7303624,29.53 C69.7303624,29.660625 69.6754145,29.765625 69.5655187,29.845 C69.4556229,29.924375 69.2962999,29.9640625 69.0875499,29.9640625 L61.5866124,29.9640625 C61.3841124,29.9640625 61.2309354,29.9238542 61.1270812,29.8434375 C61.023227,29.7630208 60.9712999,29.65875 60.9712999,29.530625 C60.9712999,29.4097917 61.0189562,29.310625 61.1142687,29.233125 C61.2095812,29.155625 61.3519249,29.095625 61.5412999,29.053125 L62.7069249,28.84375 C62.9725499,28.7877083 63.1764041,28.6832812 63.3184874,28.5304687 C63.4605708,28.3776562 63.5316124,28.163125 63.5316124,27.886875 L63.5316124,14.2621875 C63.5316124,14.0298958 63.488852,13.8596354 63.4033312,13.7514062 C63.3178104,13.6431771 63.1694249,13.5834375 62.9581749,13.5721875 L61.2719249,13.54875 C61.0877583,13.533125 60.956352,13.4933333 60.8777062,13.429375 C60.7990604,13.3654167 60.7597374,13.2828125 60.7597374,13.1815625 C60.7597374,13.0680208 60.8012999,12.9711979 60.8844249,12.8910937 C60.9675499,12.8109896 61.1145291,12.7375 61.3253624,12.670625 L64.3666124,11.688125 C64.7072374,11.5677083 64.9686437,11.4871875 65.1508312,11.4465625 C65.3330187,11.4059375 65.4809874,11.385625 65.5947374,11.385625 C65.7818208,11.385625 65.9208833,11.4407812 66.0119249,11.5510937 C66.1029666,11.6614062 66.1562999,11.8420833 66.1719249,12.093125 Z" id="Shape"></path>
                <path d="M80.919,12.0853125 L80.919,27.864375 C80.919,28.1458333 80.9901459,28.3648437 81.1324375,28.5214062 C81.2747292,28.6779687 81.4785834,28.7854167 81.744,28.84375 L82.84775,29.0465625 C83.2173334,29.1348958 83.402125,29.2927083 83.402125,29.52 C83.402125,29.8160417 83.1882709,29.9640625 82.7605625,29.9640625 L76.230875,29.9640625 C76.0310834,29.9640625 75.8801459,29.924375 75.7780625,29.845 C75.6759792,29.765625 75.6249375,29.6617708 75.6249375,29.5334375 C75.6249375,29.4142708 75.6713959,29.3164583 75.7643125,29.24 C75.8572292,29.1635417 75.9959792,29.1041667 76.1805625,29.061875 L77.3605625,28.84375 C77.6261875,28.77875 77.8300417,28.671875 77.972125,28.523125 C78.1142084,28.374375 78.18525,28.1610417 78.18525,27.883125 L78.18525,14.2528125 C78.18525,14.0209375 78.1423334,13.8511979 78.0565,13.7435937 C77.9706667,13.6359896 77.822125,13.5765625 77.610875,13.5653125 L75.928375,13.541875 C75.74275,13.52625 75.6107188,13.4864583 75.5322813,13.4225 C75.4538438,13.3585417 75.414625,13.2757292 75.414625,13.1740625 C75.414625,13.0601042 75.4556146,12.9638542 75.5375938,12.8853125 C75.619573,12.8067708 75.7667084,12.7329167 75.979,12.66375 L79.0430625,11.6621875 C79.3403542,11.5592708 79.5826459,11.4864062 79.7699375,11.4435937 C79.9572292,11.4007812 80.11775,11.379375 80.2515,11.379375 C80.4762917,11.379375 80.6437396,11.4398437 80.7538438,11.5607812 C80.863948,11.6817187 80.919,11.8565625 80.919,12.0853125 Z M80.447125,16.023125 L79.8786875,15.4671875 L80.7930625,14.675 C82.2366042,13.4127083 83.4768125,12.5148958 84.5136875,11.9815625 C85.5505625,11.4482292 86.5703542,11.1815625 87.5730625,11.1815625 C89.0936875,11.1815625 90.269625,11.683125 91.100875,12.68625 C91.932125,13.689375 92.4545209,15.0760417 92.6680625,16.84625 L94.0355625,27.7475 C94.0755625,28.0679167 94.1695209,28.3184375 94.3174375,28.4990625 C94.4653542,28.6796875 94.6870209,28.8025 94.9824375,28.8675 L95.9843125,29.061875 C96.1688959,29.1022917 96.307698,29.1607812 96.4007188,29.2373437 C96.4937396,29.3139062 96.54025,29.4126042 96.54025,29.5334375 C96.54025,29.6617708 96.4915,29.765625 96.394,29.845 C96.2965,29.924375 96.1413959,29.9640625 95.9286875,29.9640625 L89.3393125,29.9640625 C88.9082709,29.9640625 88.69275,29.8160417 88.69275,29.52 C88.69275,29.2960417 88.8747292,29.1382292 89.2386875,29.0465625 L90.4068125,28.84375 C90.7132709,28.7854167 90.9453021,28.6642708 91.1029063,28.4803125 C91.2605105,28.2963542 91.3192084,28.0520833 91.279,27.7475 L89.9315,17.27 C89.7387917,15.7833333 89.3488438,14.6709375 88.7616563,13.9328125 C88.1744688,13.1946875 87.327125,12.825625 86.219625,12.825625 C85.517125,12.825625 84.7709271,13.0261979 83.9810313,13.4273437 C83.1911355,13.8284896 82.3053542,14.4446875 81.3236875,15.2759375 L80.447125,16.023125 Z" id="Shape"></path>
                <path d="M107.983325,29.403125 C106.100825,29.023125 104.727752,28.6858854 103.864107,28.3914063 C103.000461,28.0969271 102.450409,27.8175521 102.21395,27.5532813 C101.977492,27.2890104 101.859263,27.0198958 101.859263,26.7459375 C101.859263,26.4309375 101.980252,26.1397917 102.222232,25.8725 C102.464211,25.6052083 102.867909,25.3376042 103.433325,25.0696875 L102.886763,24.83875 C102.046555,25.0604167 101.387492,25.3288021 100.909575,25.6439063 C100.431659,25.9590104 100.094419,26.2996354 99.8978566,26.6657813 C99.7012941,27.0319271 99.6030129,27.4102083 99.6030129,27.800625 C99.6030129,28.3091667 99.7767108,28.7661458 100.124107,29.1715625 C100.471502,29.5769792 101.138013,29.9602604 102.123638,30.3214063 C103.109263,30.6825521 104.5577,31.0501042 106.46895,31.4240625 C108.04145,31.7271875 109.250461,32.0607292 110.095982,32.4246875 C110.941502,32.7886458 111.526242,33.1883333 111.8502,33.62375 C112.174159,34.0591667 112.336138,34.5429167 112.336138,35.075 C112.336138,35.8252083 112.094992,36.4773958 111.6127,37.0315625 C111.130409,37.5857292 110.405409,38.0130208 109.4377,38.3134375 C108.469992,38.6138542 107.25895,38.7640625 105.804575,38.7640625 C103.216659,38.7640625 101.37093,38.3652604 100.267388,37.5676563 C99.1638462,36.7700521 98.6120754,35.7465625 98.6120754,34.4971875 C98.6120754,33.5246875 99.0947837,32.6591667 100.0602,31.900625 C101.025617,31.1420833 102.456138,30.6547917 104.351763,30.43875 L103.9027,29.90875 C101.137075,30.2704167 99.1959295,30.9214063 98.0792629,31.8617188 C96.9625962,32.8020313 96.4042629,33.8407292 96.4042629,34.9778125 C96.4042629,35.8753125 96.7179087,36.6855208 97.3452004,37.4084375 C97.972492,38.1313542 98.949367,38.7064063 100.275825,39.1335938 C101.602284,39.5607813 103.319367,39.774375 105.427075,39.774375 C108.415825,39.774375 110.71843,39.2713542 112.334888,38.2653125 C113.951346,37.2592708 114.759575,35.9670833 114.759575,34.38875 C114.759575,33.5725 114.555982,32.8504688 114.148794,32.2226563 C113.741607,31.5948438 113.046294,31.0477604 112.062857,30.5814063 C111.079419,30.1150521 109.719575,29.7222917 107.983325,29.403125 Z M109.174263,13.13375 L109.914263,13.3653125 C110.436763,12.5338542 110.866294,11.9758333 111.202857,11.69125 C111.539419,11.4066667 111.881242,11.264375 112.228325,11.264375 C112.499159,11.264375 112.720461,11.3464063 112.892232,11.5104688 C113.064002,11.6745313 113.22395,11.8618229 113.372075,12.0723438 C113.5202,12.2828646 113.685617,12.4701563 113.868325,12.6342188 C114.051034,12.7982813 114.286346,12.8803125 114.574263,12.8803125 C114.961971,12.8803125 115.26468,12.7470833 115.482388,12.480625 C115.700096,12.2141667 115.80895,11.8584375 115.80895,11.4134375 C115.80895,10.8457292 115.601815,10.3845313 115.187544,10.0298438 C114.773273,9.67515625 114.2327,9.4978125 113.565825,9.4978125 C112.845825,9.4978125 112.16093,9.72984375 111.511138,10.1939063 C110.861346,10.6579688 110.274055,11.3267708 109.749263,12.2003125 L109.174263,13.13375 Z M113.197075,18.27375 C113.197075,16.9372917 112.859575,15.7348438 112.184575,14.6664063 C111.509575,13.5979688 110.581867,12.7525521 109.40145,12.1301563 C108.221034,11.5077604 106.861346,11.1965625 105.322388,11.1965625 C103.760305,11.1965625 102.366919,11.5128646 101.142232,12.1454688 C99.9175441,12.7780729 98.9555129,13.6553646 98.2561379,14.7773438 C97.5567629,15.8993229 97.2070754,17.2029167 97.2070754,18.688125 C97.2070754,20.0104167 97.5454608,21.2071354 98.2222316,22.2782813 C98.8990024,23.3494271 99.830617,24.1955729 101.017075,24.8167188 C102.203534,25.4378646 103.559784,25.7484375 105.085825,25.7484375 C106.626242,25.7484375 108.009055,25.4345313 109.234263,24.8067188 C110.459471,24.1789063 111.426242,23.3030729 112.134575,22.1792188 C112.842909,21.0553646 113.197075,19.7535417 113.197075,18.27375 Z M104.769575,12.2040625 C106.386659,12.1790625 107.695982,12.765 108.697544,13.961875 C109.699107,15.15875 110.233638,16.7429167 110.301138,18.714375 C110.368846,20.5522917 109.987805,22.005625 109.158013,23.074375 C108.328221,24.143125 107.148742,24.6898958 105.619575,24.7146875 C104.556034,24.7298958 103.615877,24.4675 102.799107,23.9275 C101.982336,23.3875 101.338742,22.6246354 100.868325,21.6389063 C100.397909,20.6531771 100.139263,19.5114583 100.092388,18.21375 C100.04843,16.9864583 100.205982,15.9258854 100.565044,15.0320313 C100.924107,14.1381771 101.461919,13.4471875 102.178482,12.9590625 C102.895044,12.4709375 103.758742,12.2192708 104.769575,12.2040625 Z" id="Shape"></path>
                <path d="M132.333125,18.5290625 C132.333125,18.9767708 132.194322,19.3169271 131.916718,19.5495313 C131.639114,19.7821354 131.229583,19.8984375 130.688125,19.8984375 L117.717812,19.8984375 L117.717812,18.9915625 L128.589062,18.9915625 C129.163645,18.9915625 129.450937,18.7425 129.450937,18.244375 C129.450937,16.395 129.01125,14.9251042 128.131875,13.8346875 C127.2525,12.7442708 126.074895,12.1990625 124.599062,12.1990625 C123.40677,12.1990625 122.367083,12.5263021 121.48,13.1807813 C120.592916,13.8352604 119.903229,14.7490625 119.410937,15.9221875 C118.918645,17.0953125 118.6725,18.4570833 118.6725,20.0075 C118.6725,22.735 119.328072,24.8273438 120.639218,26.2845313 C121.950364,27.7417188 123.645416,28.4703125 125.724375,28.4703125 C127.160208,28.4703125 128.399062,28.1036979 129.440937,27.3704688 C130.482812,26.6372396 131.152291,25.7015625 131.449375,24.5634375 C131.53375,24.3996875 131.614166,24.2860417 131.690625,24.2225 C131.767083,24.1589583 131.857708,24.1271875 131.9625,24.1271875 C132.10125,24.1271875 132.200937,24.1802604 132.261562,24.2864063 C132.322187,24.3925521 132.347083,24.519375 132.33625,24.666875 C132.222708,25.7329167 131.83026,26.6997396 131.158906,27.5673438 C130.487552,28.4349479 129.609635,29.1224479 128.525156,29.6298438 C127.440677,30.1372396 126.221562,30.3909375 124.867812,30.3909375 C123.097395,30.3909375 121.548802,30.0084375 120.222031,29.2434375 C118.89526,28.4784375 117.86651,27.3971354 117.135781,25.9995313 C116.405052,24.6019271 116.039687,22.9598958 116.039687,21.0734375 C116.039687,19.2042708 116.405625,17.525 117.1375,16.035625 C117.869375,14.54625 118.901718,13.3640625 120.234531,12.4890625 C121.567343,11.6140625 123.13625,11.1765625 124.94125,11.1765625 C126.406041,11.1765625 127.693333,11.4879688 128.803125,12.1107813 C129.912916,12.7335938 130.778697,13.5966667 131.400468,14.7 C132.022239,15.8033333 132.333125,17.0796875 132.333125,18.5290625 Z" id="Path"></path>
                <path d="M139.375314,1.4140625 L139.375314,27.864375 C139.375314,28.1458333 139.446408,28.3654167 139.588595,28.523125 C139.730783,28.6808333 139.934585,28.7877083 140.200001,28.84375 L141.310626,29.043125 C141.50771,29.08375 141.654949,29.1427083 141.752345,29.22 C141.849741,29.2972917 141.898439,29.4017708 141.898439,29.5334375 C141.898439,29.6617708 141.845262,29.765625 141.738908,29.845 C141.632553,29.924375 141.473022,29.9640625 141.260314,29.9640625 L134.687189,29.9640625 C134.487189,29.9640625 134.336147,29.924375 134.234064,29.845 C134.131981,29.765625 134.080939,29.6617708 134.080939,29.5334375 C134.080939,29.4126042 134.129168,29.3126042 134.225626,29.2334375 C134.322085,29.1542708 134.466043,29.0935417 134.657501,29.05125 L135.816564,28.84375 C136.082397,28.77875 136.286303,28.671875 136.428283,28.523125 C136.570262,28.374375 136.641251,28.1610417 136.641251,27.883125 L136.641251,3.58125 C136.641251,3.349375 136.598387,3.17963542 136.512658,3.07203125 C136.426928,2.96442708 136.278439,2.905 136.067189,2.89375 L134.384376,2.8703125 C134.198751,2.8546875 134.06672,2.81489583 133.988283,2.7509375 C133.909845,2.68697917 133.870626,2.60416667 133.870626,2.5025 C133.870626,2.38854167 133.911668,2.29229167 133.993751,2.21375 C134.075835,2.13520833 134.222918,2.06135417 134.435001,1.9921875 L137.499064,0.990625 C137.803022,0.885416667 138.048126,0.811979167 138.234376,0.7703125 C138.420626,0.728645833 138.57396,0.7078125 138.694376,0.7078125 C138.925835,0.7078125 139.097189,0.76828125 139.208439,0.88921875 C139.319689,1.01015625 139.375314,1.18510417 139.375314,1.4140625 Z" id="Path"></path>
                <path d="M157.732426,26.8553125 L157.682426,26.6928125 L157.682426,3.58125 C157.682426,3.349375 157.639509,3.17963542 157.553676,3.07203125 C157.467842,2.96442708 157.319301,2.905 157.108051,2.89375 L155.425238,2.8703125 C155.239822,2.8546875 155.107894,2.81489583 155.029457,2.7509375 C154.951019,2.68697917 154.911801,2.60416667 154.911801,2.5025 C154.911801,2.38854167 154.95279,2.29229167 155.034769,2.21375 C155.116749,2.13520833 155.263884,2.06135417 155.476176,1.9921875 L158.539926,0.990625 C158.837426,0.887708333 159.079822,0.81484375 159.267113,0.77203125 C159.454405,0.72921875 159.614926,0.7078125 159.748676,0.7078125 C159.973467,0.7078125 160.140915,0.76828125 160.251019,0.88921875 C160.361124,1.01015625 160.416176,1.18510417 160.416176,1.4140625 L160.416176,27.864375 C160.416176,28.1458333 160.487322,28.3654167 160.629613,28.523125 C160.771905,28.6808333 160.975655,28.7877083 161.240863,28.84375 L162.351488,29.043125 C162.548572,29.08375 162.695811,29.1427083 162.793207,29.22 C162.890603,29.2972917 162.939301,29.4017708 162.939301,29.5334375 C162.939301,29.6617708 162.886124,29.765625 162.779769,29.845 C162.673415,29.924375 162.513884,29.9640625 162.301176,29.9640625 L159.132113,29.9640625 C158.667322,29.9640625 158.317842,29.8489063 158.083676,29.6185938 C157.849509,29.3882813 157.732426,29.0119792 157.732426,28.4896875 L157.732426,26.8553125 Z M143.216176,21.14875 C143.216176,19.08 143.617738,17.3013021 144.420863,15.8126563 C145.223988,14.3240104 146.295603,13.18 147.635707,12.380625 C148.975811,11.58125 150.453676,11.1815625 152.069301,11.1815625 C153.622842,11.1815625 155.009874,11.5754167 156.230394,12.363125 C157.450915,13.1508333 158.416488,14.2384375 159.127113,15.6259375 L158.577113,16.3740625 C157.898155,15.1176042 157.020238,14.1421354 155.943363,13.4476563 C154.866488,12.7531771 153.699822,12.4059375 152.443363,12.4059375 C151.27003,12.4059375 150.203832,12.7210938 149.244769,13.3514063 C148.285707,13.9817188 147.525394,14.9190104 146.963832,16.1632813 C146.402269,17.4075521 146.121488,18.9526042 146.121488,20.7984375 C146.121488,22.5446875 146.384769,24.024375 146.911332,25.2375 C147.437894,26.450625 148.160551,27.3723958 149.079301,28.0028125 C149.998051,28.6332292 151.042634,28.9484375 152.213051,28.9484375 C153.347634,28.9484375 154.443988,28.6318229 155.502113,27.9985938 C156.560238,27.3653646 157.527947,26.4269792 158.405238,25.1834375 L158.770863,26.0090625 C157.758988,27.4376042 156.612165,28.5250521 155.330394,29.2714063 C154.048624,30.0177604 152.680238,30.3909375 151.225238,30.3909375 C149.68878,30.3909375 148.316853,29.9972917 147.109457,29.21 C145.902061,28.4227083 144.951332,27.3329688 144.257269,25.9407813 C143.563207,24.5485938 143.216176,22.95125 143.216176,21.14875 Z" id="Shape"></path>
                <path d="M174.567346,15.619375 L191.455158,15.619375 L191.455158,17.830625 L174.567346,17.830625 L174.567346,15.619375 Z M178.916721,26.5009375 C178.916721,26.7917708 179.001148,27.0271354 179.170002,27.2070313 C179.338856,27.3869271 179.582867,27.52875 179.902033,27.6325 L180.915158,27.8934375 C181.474533,28.0861458 181.754221,28.4467708 181.754221,28.9753125 C181.754221,29.2751042 181.651513,29.5148438 181.446096,29.6945313 C181.240679,29.8742188 180.91995,29.9640625 180.483908,29.9640625 L169.714221,29.9640625 C169.280471,29.9640625 168.960315,29.8742188 168.753752,29.6945313 C168.54719,29.5148438 168.443908,29.2751042 168.443908,28.9753125 C168.443908,28.4467708 168.723596,28.0861458 169.282971,27.8934375 L170.296096,27.6325 C170.626096,27.52875 170.872815,27.3869271 171.036252,27.2070313 C171.19969,27.0271354 171.281408,26.7917708 171.281408,26.5009375 L171.281408,5.4271875 C171.281408,5.13635417 171.19969,4.90088542 171.036252,4.72078125 C170.872815,4.54067708 170.626096,4.39895833 170.296096,4.295625 L169.282971,4.0346875 C168.723596,3.84260417 168.443908,3.4815625 168.443908,2.9515625 C168.443908,2.64197917 168.54719,2.4 168.753752,2.225625 C168.960315,2.05125 169.280471,1.9640625 169.714221,1.9640625 L180.483908,1.9640625 C180.91995,1.9640625 181.240679,2.05125 181.446096,2.225625 C181.651513,2.4 181.754221,2.64197917 181.754221,2.9515625 C181.754221,3.4815625 181.474533,3.84260417 180.915158,4.0346875 L179.902033,4.295625 C179.582867,4.39895833 179.338856,4.54067708 179.170002,4.72078125 C179.001148,4.90088542 178.916721,5.13635417 178.916721,5.4271875 L178.916721,26.5009375 Z M196.375158,26.5009375 C196.375158,26.7917708 196.459533,27.0271354 196.628283,27.2070313 C196.797033,27.3869271 197.041096,27.52875 197.360471,27.6325 L198.373596,27.8934375 C198.932971,28.0861458 199.212658,28.4467708 199.212658,28.9753125 C199.212658,29.2751042 199.109898,29.5148438 198.904377,29.6945313 C198.698856,29.8742188 198.378075,29.9640625 197.942033,29.9640625 L187.172658,29.9640625 C186.7387,29.9640625 186.41844,29.8742188 186.211877,29.6945313 C186.005315,29.5148438 185.902033,29.2751042 185.902033,28.9753125 C185.902033,28.4467708 186.181721,28.0861458 186.741096,27.8934375 L187.754221,27.6325 C188.084221,27.52875 188.33094,27.3869271 188.494377,27.2070313 C188.657815,27.0271354 188.739533,26.7917708 188.739533,26.5009375 L188.739533,5.4271875 C188.739533,5.13635417 188.657815,4.90088542 188.494377,4.72078125 C188.33094,4.54067708 188.084221,4.39895833 187.754221,4.295625 L186.741096,4.0346875 C186.181721,3.84260417 185.902033,3.4815625 185.902033,2.9515625 C185.902033,2.64197917 186.005315,2.4 186.211877,2.225625 C186.41844,2.05125 186.7387,1.9640625 187.172658,1.9640625 L197.942033,1.9640625 C198.378075,1.9640625 198.698856,2.05125 198.904377,2.225625 C199.109898,2.4 199.212658,2.64197917 199.212658,2.9515625 C199.212658,3.4815625 198.932971,3.84260417 198.373596,4.0346875 L197.360471,4.295625 C197.041096,4.39895833 196.797033,4.54067708 196.628283,4.72078125 C196.459533,4.90088542 196.375158,5.13635417 196.375158,5.4271875 L196.375158,26.5009375 Z" id="Shape"></path>
                <path d="M219.491547,18.259375 C219.491547,18.9735417 219.292536,19.5264583 218.894515,19.918125 C218.496494,20.3097917 217.920505,20.505625 217.166547,20.505625 L204.948109,20.505625 L204.948109,18.9146875 L211.698109,18.9146875 C212.331234,18.9146875 212.647797,18.6169792 212.647797,18.0215625 C212.647797,16.1767708 212.386755,14.8207292 211.864672,13.9534375 C211.342588,13.0861458 210.664463,12.6525 209.830297,12.6525 C209.195297,12.6525 208.630974,12.8663542 208.137328,13.2940625 C207.643682,13.7217708 207.254463,14.3632292 206.969672,15.2184375 C206.68488,16.0736458 206.542484,17.1385417 206.542484,18.413125 C206.542484,20.9558333 207.117172,22.84 208.266547,24.065625 C209.415922,25.29125 210.957276,25.9040625 212.890609,25.9040625 C213.982901,25.9040625 214.941911,25.7043229 215.76764,25.3048438 C216.593369,24.9053646 217.261026,24.295 217.770609,23.47375 C218.034359,23.2072917 218.240557,23.0272396 218.389203,22.9335938 C218.537849,22.8399479 218.684672,22.793125 218.829672,22.793125 C219.036755,22.793125 219.189619,22.8916667 219.288265,23.08875 C219.386911,23.2858333 219.434984,23.5290625 219.432484,23.8184375 C219.403942,25.0157292 219.005713,26.1209375 218.237797,27.1340625 C217.46988,28.1471875 216.419828,28.9566667 215.08764,29.5625 C213.755453,30.1683333 212.219776,30.47125 210.480609,30.47125 C208.535609,30.47125 206.801182,30.0751563 205.277328,29.2829688 C203.753474,28.4907813 202.554151,27.3819792 201.679359,25.9565625 C200.804567,24.5311458 200.367172,22.8665625 200.367172,20.9628125 C200.367172,18.8867708 200.778786,17.0685938 201.602015,15.5082813 C202.425244,13.9479688 203.612901,12.7311979 205.164984,11.8579688 C206.717067,10.9847396 208.575088,10.548125 210.739047,10.548125 C212.615922,10.548125 214.206182,10.8800521 215.509828,11.5439063 C216.813474,12.2077604 217.803005,13.1191146 218.478422,14.2779688 C219.153838,15.4368229 219.491547,16.7639583 219.491547,18.259375 Z" id="Path"></path>
                <path d="M228.946102,1.340625 L228.946102,26.6465625 C228.946102,27.0778125 228.993445,27.3898958 229.088133,27.5828125 C229.18282,27.7757292 229.336727,27.9109375 229.549852,27.9884375 L230.196727,28.1859375 C230.449852,28.2813542 230.632456,28.4035417 230.744539,28.5525 C230.856622,28.7014583 230.912664,28.8785417 230.912664,29.08375 C230.912664,29.3566667 230.822039,29.5716146 230.640789,29.7285937 C230.459539,29.8855729 230.170893,29.9640625 229.774852,29.9640625 L221.208289,29.9640625 C220.817039,29.9640625 220.530893,29.8855729 220.349852,29.7285937 C220.16881,29.5716146 220.078289,29.3566667 220.078289,29.08375 C220.078289,28.88125 220.134227,28.7053125 220.246102,28.5559375 C220.357977,28.4065625 220.539852,28.2838542 220.791727,28.1878125 L221.450477,27.9884375 C221.665268,27.9088542 221.819591,27.7736458 221.913445,27.5828125 C222.0073,27.3919792 222.054227,27.0814583 222.054227,26.65125 L222.054227,5.0121875 C222.054227,4.6734375 222.004695,4.43088542 221.905633,4.28453125 C221.80657,4.13817708 221.652143,4.04260417 221.442352,3.9978125 L220.650164,3.9040625 C220.416622,3.8415625 220.248237,3.74588542 220.145008,3.61703125 C220.041779,3.48817708 219.990164,3.32416667 219.990164,3.125 C219.990164,2.88895833 220.057247,2.7009375 220.191414,2.5609375 C220.325581,2.4209375 220.573081,2.28291667 220.933914,2.146875 L225.414227,0.56 C225.961727,0.353125 226.392143,0.208072917 226.705477,0.12484375 C227.01881,0.0416145833 227.295789,0 227.536414,0 C228.007456,0 228.360164,0.125104167 228.594539,0.3753125 C228.828914,0.625520833 228.946102,0.947291667 228.946102,1.340625 Z" id="Path"></path>
                <path d="M239.71394,11.9196875 L239.71394,13.995 L239.98144,14.5478125 L239.98144,35.9696875 C239.98144,36.4009375 240.028836,36.7135938 240.123627,36.9076563 C240.218419,37.1017188 240.372377,37.2353125 240.585502,37.3084375 L241.375815,37.5090625 C241.62894,37.6028125 241.811596,37.7245833 241.923783,37.874375 C242.035971,38.0241667 242.092065,38.2016667 242.092065,38.406875 C242.092065,38.6797917 242.001388,38.8947396 241.820033,39.0517188 C241.638679,39.2086979 241.349981,39.2871875 240.95394,39.2871875 L232.257065,39.2871875 C231.865815,39.2871875 231.579669,39.2086979 231.398627,39.0517188 C231.217586,38.8947396 231.127065,38.6797917 231.127065,38.406875 C231.127065,38.204375 231.183002,38.0284375 231.294877,37.8790625 C231.406752,37.7296875 231.588523,37.6070833 231.84019,37.51125 L232.486127,37.311875 C232.700919,37.234375 232.855242,37.0996875 232.949096,36.9078125 C233.04295,36.7159375 233.089877,36.4047917 233.089877,35.974375 L233.089877,15.5915625 C233.089877,15.2526042 233.040346,15.0099479 232.941283,14.8635938 C232.842221,14.7172396 232.687794,14.6217708 232.478002,14.5771875 L231.685815,14.4834375 C231.452273,14.4209375 231.283888,14.3252604 231.180658,14.1964063 C231.077429,14.0675521 231.025815,13.9034375 231.025815,13.7040625 C231.025815,13.4682292 231.092898,13.2869792 231.227065,13.1603125 C231.361231,13.0336458 231.608731,12.8933333 231.969565,12.739375 L236.182065,11.1390625 C236.684773,10.9321875 237.0967,10.7871354 237.417846,10.7039063 C237.738992,10.6206771 238.029981,10.5790625 238.290815,10.5790625 C238.770815,10.5790625 239.128002,10.7041667 239.362377,10.954375 C239.596752,11.2045833 239.71394,11.5263542 239.71394,11.9196875 Z M238.803627,16.900625 L237.782377,15.7965625 C238.843002,14.1436458 240.036492,12.8556771 241.362846,11.9326563 C242.6892,11.0096354 244.187586,10.548125 245.858002,10.548125 C247.425919,10.548125 248.823367,10.9440104 250.050346,11.7357813 C251.277325,12.5275521 252.243315,13.6267708 252.948315,15.0334375 C253.653315,16.4401042 254.005815,18.0716667 254.005815,19.928125 C254.005815,22.055 253.580658,23.9090625 252.730346,25.4903125 C251.880033,27.0715625 250.722586,28.2972396 249.258002,29.1673438 C247.793419,30.0374479 246.144252,30.4725 244.310502,30.4725 C242.761336,30.4725 241.413263,30.1372917 240.266283,29.466875 C239.119304,28.7964583 238.154773,27.7935417 237.37269,26.458125 L238.939877,25.3134375 C239.523836,26.2523958 240.141856,26.9395833 240.79394,27.375 C241.446023,27.8104167 242.157169,28.028125 242.927377,28.028125 C243.698211,28.028125 244.381492,27.7803646 244.977221,27.2848438 C245.57295,26.7893229 246.038836,25.9975521 246.374877,24.9095313 C246.710919,23.8215104 246.87894,22.398125 246.87894,20.639375 C246.87894,19.0097917 246.71394,17.6857813 246.38394,16.6673438 C246.05394,15.6489063 245.60394,14.8992188 245.03394,14.4182813 C244.46394,13.9373438 243.807586,13.696875 243.064877,13.696875 C242.257794,13.696875 241.499096,13.9545313 240.788783,14.4698438 C240.078471,14.9851563 239.416752,15.7954167 238.803627,16.900625 Z" id="Shape"></path>
            </g>
        </g>
    </g>
</svg>