<?xml version="1.0" encoding="UTF-8"?>
<svg width="422px" height="89px" viewBox="0 0 422 89" version="1.1" xmlns="http://www.w3.org/2000/svg" xmlns:xlink="http://www.w3.org/1999/xlink">
    <title>Group 7 Copy</title>
    <g id="Eltern-Helper" stroke="none" stroke-width="1" fill="none" fill-rule="evenodd">
        <g id="Artboard" transform="translate(-3346.000000, -3470.000000)">
            <g id="Group-7-Copy" transform="translate(3346.000000, 3470.000000)">
                <text id="for-Expats" font-family="SpaceGrotesk-Light_Regular, Space Grotesk" font-size="23" font-weight="normal" letter-spacing="1.67272727" fill="#000000">
                    <tspan x="93" y="82">for Expats</tspan>
                </text>
                <text id="Elterngeld-Copy" font-family="SpaceGrotesk-Light, Space Grotesk" font-size="52" font-weight="300" letter-spacing="-3" fill="#000000">
                    <tspan x="90" y="51">Elterngeld</tspan>
                    <tspan x="317.4" y="51" font-family="SpaceGrotesk-Light_Bold, Space Grotesk" font-weight="bold"> </tspan>
                </text>
                <text id="Help" font-family="SpaceGrotesk-Light_Bold, Space Grotesk" font-size="52" font-weight="bold" letter-spacing="-3" fill="#000000">
                    <tspan x="322" y="51">Help</tspan>
                </text>
                <g id="Group-6-Copy-2" transform="translate(0.000000, 10.000000)">
                    <g id="Body" fill="#B98A43" fill-rule="nonzero">
                        <path d="M70,35 L70,35 C70,15.6545455 54.3454545,0 35,0 L35,0 C15.6545455,0 0,15.6545455 0,35 L0,70 L35,70 C54.3454545,70 70,54.3454545 70,35 Z" id="Shape"></path>
                    </g>
                    <g id="Eyes-Copy-2" transform="translate(22.142721, 20.228327)">
                        <ellipse id="Oval" fill="#FFFFFF" cx="8.22516642" cy="9.31634094" rx="8.22516642" ry="9.31634094"></ellipse>
                        <ellipse id="Oval-Copy-3" fill="#FFFFFF" cx="27.8594347" cy="9.31634094" rx="8.22516642" ry="9.31634094"></ellipse>
                        <ellipse id="Oval" fill="#000000" cx="9.55180617" cy="10.913428" rx="4.24524719" ry="4.52507989"></ellipse>
                        <ellipse id="Oval-Copy-4" fill="#000000" cx="29.7167303" cy="10.913428" rx="4.24524719" ry="4.52507989"></ellipse>
                    </g>
                </g>
            </g>
        </g>
    </g>
</svg>