<?xml version="1.0" encoding="UTF-8"?>
<svg width="399px" height="69px" viewBox="0 0 399 69" version="1.1" xmlns="http://www.w3.org/2000/svg" xmlns:xlink="http://www.w3.org/1999/xlink">
    <title>Group 4</title>
    <g id="Eltern-Helper" stroke="none" stroke-width="1" fill="none" fill-rule="evenodd">
        <g id="Artboard" transform="translate(-1647.000000, -3284.000000)">
            <g id="Group-4" transform="translate(1647.000000, 3284.600000)">
                <g id="for-Expats" transform="translate(78.000000, 48.400000)" fill="#000000" fill-rule="nonzero">
                    <path d="M2.74106524,15 L2.74106524,5.99129464 L0,5.99129464 L0,4.5234375 L2.74106524,4.5234375 L2.74106524,1.85223214 C2.74106524,1.27589286 2.87913118,0.823102679 3.15526305,0.493861607 C3.43139492,0.164620536 3.82448348,0 4.33452871,0 L6.57810017,0 L6.57810017,1.46785714 L4.7230531,1.46785714 C4.36495646,1.46785714 4.18590815,1.68214286 4.18590815,2.11071429 L4.18590815,4.5234375 L7,4.5234375 L7,5.99129464 L4.18590815,5.99129464 L4.18590815,15 L2.74106524,15 Z" id="Path"></path>
                    <path d="M13.5,15 C12.6122219,15 11.8293239,14.7796586 11.1513059,14.3389759 C10.4732879,13.8982931 9.94523244,13.2761169 9.56713947,12.4724473 C9.18904649,11.6687776 9,10.7246237 9,9.63998549 L9,9.36001451 C9,8.27537634 9.18904649,7.33127783 9.56713947,6.527719 C9.94523244,5.72416017 10.4732879,5.10198396 11.1513059,4.66119038 C11.8293239,4.22039679 12.6122219,4 13.5,4 C14.3877781,4 15.1706761,4.22039679 15.8486941,4.66119038 C16.5267121,5.10198396 17.0547676,5.72416017 17.4328605,6.527719 C17.8109535,7.33127783 18,8.27537634 18,9.36001451 L18,9.63998549 C18,10.7246237 17.8109535,11.6687776 17.4328605,12.4724473 C17.0547676,13.2761169 16.5267121,13.8982931 15.8486941,14.3389759 C15.1706761,14.7796586 14.3877781,15 13.5,15 Z M13.5,13.4930778 C14.4342664,13.4930778 15.1804705,13.1414515 15.7386122,12.438199 C16.2967539,11.7349465 16.5758248,10.7860266 16.5758248,9.59143945 L16.5758248,9.40889305 C16.5758248,8.21430587 16.2976443,7.26538601 15.7412834,6.56213349 C15.1849225,5.85888096 14.437828,5.5072547 13.5,5.5072547 C12.574169,5.5072547 11.8300737,5.85888096 11.2677143,6.56213349 C10.7053549,7.26538601 10.4241752,8.21430587 10.4241752,9.40889305 L10.4241752,9.59143945 C10.4241752,10.7860266 10.7053549,11.7349465 11.2677143,12.438199 C11.8300737,13.1414515 12.574169,13.4930778 13.5,13.4930778 Z" id="Shape"></path>
                    <path d="M22,15 L22,4.04481507 L23.481337,4.04481507 L23.481337,5.379464 L23.7450792,5.379464 C23.9131061,4.89933584 24.1694471,4.54939313 24.5141023,4.32963588 C24.8587574,4.10987863 25.3169307,4 25.8886222,4 L27,4 L27,5.61894455 L25.7821051,5.61894455 C25.1039966,5.61894455 24.5574092,5.8385851 24.1423428,6.27786619 C23.7272764,6.71714728 23.5197432,7.40151081 23.5197432,8.33095678 L23.5197432,15 L22,15 Z" id="Path"></path>
                    <polygon id="Path" points="35 15 35 0 42.9158832 0 42.9158832 1.62823661 36.5382186 1.62823661 36.5382186 6.65223214 42.4014211 6.65223214 42.4014211 8.28013393 36.5382186 8.28013393 36.5382186 13.3717634 43 13.3717634 43 15"></polygon>
                    <polygon id="Path" points="46 15 49.4828606 9.42301055 46.0984016 4 47.7939573 4 50.3781761 8.25551294 50.6218239 8.25551294 53.2057655 4 54.9015984 4 51.5171394 9.42301055 55 15 53.2814377 15 50.6218239 10.6035155 50.3781761 10.6035155 47.7185623 15"></polygon>
                    <path d="M59,19 L59,4.29875961 L60.382655,4.29875961 L60.382655,6.01862802 L60.6288275,6.01862802 C60.8659447,5.49490953 61.2356236,5.0275419 61.7378641,4.61652514 C62.2401046,4.20550838 62.9466953,4 63.8576363,4 C64.6169716,4 65.3098394,4.21490019 65.9362397,4.64470057 C66.56264,5.07450096 67.0632001,5.68980349 67.4379201,6.49060819 C67.81264,7.29141288 68,8.25287867 68,9.37500556 L68,9.65575957 C68,10.7678833 67.8147872,11.7268484 67.4443615,12.5326546 C67.0739358,13.3384609 66.5755228,13.9562642 65.9491225,14.3860646 C65.3227222,14.8158649 64.6255601,15.0307651 63.8576363,15.0307651 C63.2521471,15.0307651 62.737444,14.9358467 62.3135269,14.7460099 C61.8896098,14.556173 61.5459298,14.3110968 61.2824869,14.0107811 C61.0190441,13.7104655 60.8131068,13.4040368 60.6646751,13.0914951 L60.4185026,13.0914951 L60.4185026,19 L59,19 Z M63.4820762,13.5319655 C64.39059,13.5319655 65.1300411,13.1869137 65.7004294,12.4968101 C66.2708178,11.8067065 66.5560119,10.8434624 66.5560119,9.60707776 L66.5560119,9.42402081 C66.5560119,8.18741386 66.2699776,7.22411417 65.6979089,6.53412173 C65.1258402,5.84412928 64.3872293,5.49913306 63.4820762,5.49913306 C62.5853249,5.49913306 61.8488144,5.84412928 61.2725448,6.53412173 C60.6962752,7.22411417 60.4081404,8.18741386 60.4081404,9.42402081 L60.4081404,9.60707776 C60.4081404,10.8434624 60.6962752,11.8067065 61.2725448,12.4968101 C61.8488144,13.1869137 62.5853249,13.5319655 63.4820762,13.5319655 Z" id="Shape"></path>
                    <path d="M74.2952678,15 C73.6766203,15 73.117523,14.8738136 72.6179759,14.6214407 C72.1184289,14.3690678 71.7238794,13.9985994 71.4343277,13.5100357 C71.1447759,13.0214719 71,12.4306068 71,11.7374403 C71,11.0338553 71.1447759,10.4499728 71.4343277,9.98579288 C71.7238794,9.52161296 72.1188974,9.17292385 72.6193815,8.93972553 C73.1198657,8.70652722 73.6803686,8.58992806 74.3008902,8.58992806 L77.2843979,8.58992806 L77.2843979,7.82782178 C77.2843979,7.08943433 77.1013431,6.50776858 76.7352335,6.0828245 C76.3691238,5.65788042 75.8258629,5.44540838 75.1054506,5.44540838 C74.3968452,5.44540838 73.8428549,5.64829313 73.4434796,6.05406263 C73.0441043,6.45983213 72.7769483,6.99954658 72.6420116,7.67320597 L71.2957364,7.17577535 C71.4396689,6.58635109 71.6684523,6.05306511 71.9820865,5.57591742 C72.2957208,5.09876972 72.7130408,4.7168299 73.2340465,4.43009794 C73.7550523,4.14336598 74.3823208,4 75.1158519,4 C76.2401374,4 77.1164298,4.34259315 77.744729,5.02777946 C78.3730283,5.71296576 78.6871779,6.67989642 78.6871779,7.92857143 L78.6871779,12.636207 C78.6871779,13.0618161 78.8550992,13.2746206 79.1909417,13.2746206 L80,13.2746206 L80,14.7020736 L78.7442449,14.7020736 C78.3516164,14.7020736 78.0369046,14.5718971 77.8001093,14.311544 C77.5633141,14.051191 77.4449164,13.6981239 77.4449164,13.2523427 L77.4449164,13.1402878 L77.218054,13.1402878 C77.093425,13.4111702 76.9195065,13.6925267 76.6962986,13.9843571 C76.4730907,14.2761875 76.1687803,14.5184189 75.7833672,14.7110513 C75.3979541,14.9036838 74.901921,15 74.2952678,15 Z M74.4611276,13.5545916 C75.3011089,13.5545916 75.9816492,13.2597132 76.5027487,12.6699565 C77.0238482,12.0801997 77.2843979,11.2564134 77.2843979,10.1985974 L77.2843979,9.95553473 L74.3607684,9.95553473 C73.7960956,9.95553473 73.3320631,10.099732 72.9686709,10.3881265 C72.6052788,10.676521 72.4235827,11.112992 72.4235827,11.6975394 C72.4235827,12.2820869 72.611276,12.7377325 72.9866625,13.0644762 C73.362049,13.3912198 73.8535374,13.5545916 74.4611276,13.5545916 Z" id="Shape"></path>
                    <path d="M85.2435233,15 C84.7368847,15 84.3464216,14.8261351 84.0721341,14.4784054 C83.7978465,14.1306757 83.6607027,13.6524589 83.6607027,13.043755 L83.6607027,5.48540714 L81,5.48540714 L81,3.93512188 L83.6607027,3.93512188 L83.6607027,0 L85.0958954,0 L85.0958954,3.93512188 L88,3.93512188 L88,5.48540714 L85.0958954,5.48540714 L85.0958954,12.7707577 C85.0958954,13.2233957 85.2737478,13.4497147 85.6294527,13.4497147 L87.6021697,13.4497147 L87.6021697,15 L85.2435233,15 Z" id="Path"></path>
                    <path d="M94.7599765,15 C93.7682949,15 92.9312482,14.7020736 92.2488365,14.1062209 C91.5664248,13.5103682 91.150146,12.5634988 91,11.2656127 L92.2399868,10.9141527 C92.3244653,11.5920239 92.4880782,12.1256978 92.7308256,12.5151744 C92.973573,12.9046511 93.2717273,13.1823499 93.6252886,13.348271 C93.9788498,13.514192 94.3570792,13.5971525 94.7599765,13.5971525 C95.3658617,13.5971525 95.8439603,13.4418717 96.1942724,13.1313101 C96.5445845,12.8207484 96.7197406,12.4015678 96.7197406,11.8737682 C96.7197406,11.3359934 96.5539473,10.9557715 96.2223607,10.7331026 C95.8907741,10.5104337 95.4336668,10.3322653 94.8510389,10.1985974 L94.1815383,10.0469742 C93.6591056,9.92527659 93.1858808,9.74533482 92.7618638,9.5071489 C92.3378468,9.26896298 92.0010444,8.94504564 91.7514566,8.53539689 C91.5018689,8.12574814 91.377075,7.60858876 91.377075,6.98391875 C91.377075,6.04491869 91.655093,5.31284888 92.211129,4.78770933 C92.767165,4.26256978 93.5034874,4 94.420096,4 C95.3284962,4 96.0661866,4.26500816 96.6331672,4.79502448 C97.2001478,5.32504081 97.5611052,6.07107591 97.7160394,7.0331298 L96.5063212,7.43646092 C96.4032028,6.69585676 96.167082,6.17177015 95.7979589,5.86420108 C95.4288358,5.55663201 94.9695482,5.40284747 94.420096,5.40284747 C93.8783393,5.40284747 93.4491065,5.53435403 93.1323977,5.79736715 C92.8156889,6.06038027 92.6573345,6.4435947 92.6573345,6.94701046 C92.6573345,7.44865284 92.8056421,7.81629486 93.1022573,8.04993652 C93.3988726,8.28357818 93.8031808,8.45814441 94.3151819,8.57363521 L94.9846825,8.72525845 C95.5508935,8.84695605 96.0616121,9.01980432 96.5168383,9.24380328 C96.9720644,9.46780223 97.3330646,9.78357314 97.5998388,10.191116 C97.8666129,10.5986589 98,11.1410334 98,11.8182395 C98,12.8341596 97.7083013,13.618433 97.1249038,14.1710598 C96.5415063,14.7236866 95.7531973,15 94.7599765,15 Z" id="Path"></path>
                </g>
                <g id="Group-6-Copy" transform="translate(0.000000, 1.400000)">
                    <g id="Body" fill="#C0630B" fill-rule="nonzero">
                        <path d="M56,28 L56,28 C56,12.5236364 43.4763636,0 28,0 L28,0 C12.5236364,0 0,12.5236364 0,28 L0,56 L28,56 C43.4763636,56 56,43.4763636 56,28 Z" id="Shape"></path>
                    </g>
                    <g id="Eyes-Copy" transform="translate(17.714177, 16.182662)">
                        <ellipse id="Oval" fill="#FFFFFF" cx="6.58013314" cy="7.45307276" rx="6.58013314" ry="7.45307276"></ellipse>
                        <ellipse id="Oval-Copy-3" fill="#FFFFFF" cx="22.2875477" cy="7.45307276" rx="6.58013314" ry="7.45307276"></ellipse>
                        <ellipse id="Oval" fill="#000000" cx="7.64144494" cy="8.73074237" rx="3.39619775" ry="3.62006391"></ellipse>
                        <ellipse id="Oval-Copy-4" fill="#000000" cx="23.7733842" cy="8.73074237" rx="3.39619775" ry="3.62006391"></ellipse>
                    </g>
                </g>
                <polygon id="Path" fill="#000000" fill-rule="nonzero" points="78.472 36.4 78.472 9.09494702e-13 100.468 9.09494702e-13 100.468 3.016 81.8 3.016 81.8 16.64 99.012 16.64 99.012 19.656 81.8 19.656 81.8 33.384 100.676 33.384 100.676 36.4"></polygon>
                <polygon id="Path" fill="#000000" fill-rule="nonzero" points="104.16 36.4 104.16 9.09494702e-13 107.28 9.09494702e-13 107.28 36.4"></polygon>
                <path d="M121.684,36.4 C120.332,36.4 119.318,36.0533333 118.642,35.36 C117.966,34.6666667 117.628,33.696 117.628,32.448 L117.628,13.936 L109.516,13.936 L109.516,11.128 L117.628,11.128 L117.628,1.664 L120.748,1.664 L120.748,11.128 L129.588,11.128 L129.588,13.936 L120.748,13.936 L120.748,32.032 C120.748,33.072 121.268,33.592 122.308,33.592 L128.236,33.592 L128.236,36.4 L121.684,36.4 Z" id="Path" fill="#000000" fill-rule="nonzero"></path>
                <path d="M143.368,37.128 C140.768,37.128 138.506,36.582 136.582,35.49 C134.658,34.398 133.158667,32.864 132.084,30.888 C131.009333,28.912 130.472,26.6413333 130.472,24.076 L130.472,23.452 C130.472,20.852 131.009333,18.5726667 132.084,16.614 C133.158667,14.6553333 134.640667,13.13 136.53,12.038 C138.419333,10.946 140.577333,10.4 143.004,10.4 C145.361333,10.4 147.45,10.894 149.27,11.882 C151.09,12.87 152.52,14.2913333 153.56,16.146 C154.6,18.0006667 155.12,20.2106667 155.12,22.776 L155.12,24.44 L133.592,24.44 C133.696,27.5946667 134.658,30.03 136.478,31.746 C138.298,33.462 140.594667,34.32 143.368,34.32 C145.725333,34.32 147.554,33.7826667 148.854,32.708 C150.154,31.6333333 151.150667,30.316 151.844,28.756 L154.652,30.004 C154.132,31.148 153.412667,32.266 152.494,33.358 C151.575333,34.45 150.388,35.3513333 148.932,36.062 C147.476,36.7726667 145.621333,37.128 143.368,37.128 Z M133.644,21.736 L151.948,21.736 C151.809333,18.9973333 150.925333,16.8913333 149.296,15.418 C147.666667,13.9446667 145.569333,13.208 143.004,13.208 C140.473333,13.208 138.376,13.9446667 136.712,15.418 C135.048,16.8913333 134.025333,18.9973333 133.644,21.736 Z" id="Shape" fill="#000000" fill-rule="nonzero"></path>
                <path d="M158.916,36.4 L158.916,11.128 L161.932,11.128 L161.932,14.3 L162.556,14.3 C163.041333,13.156 163.760667,12.324 164.714,11.804 C165.667333,11.284 166.993333,11.024 168.692,11.024 L171.656,11.024 L171.656,13.936 L168.328,13.936 C166.421333,13.936 164.896,14.4733333 163.752,15.548 C162.608,16.6226667 162.036,18.304 162.036,20.592 L162.036,36.4 L158.916,36.4 Z" id="Path" fill="#000000" fill-rule="nonzero"></path>
                <path d="M174.204,36.4 L174.204,11.128 L177.22,11.128 L177.22,15.808 L177.844,15.808 C178.468,14.456 179.490667,13.2513333 180.912,12.194 C182.333333,11.1366667 184.396,10.608 187.1,10.608 C188.937333,10.608 190.618667,10.9893333 192.144,11.752 C193.669333,12.5146667 194.891333,13.6673333 195.81,15.21 C196.728667,16.7526667 197.188,18.6853333 197.188,21.008 L197.188,36.4 L194.068,36.4 L194.068,21.216 C194.068,18.4426667 193.374667,16.4493333 191.988,15.236 C190.601333,14.0226667 188.746667,13.416 186.424,13.416 C183.824,13.416 181.657333,14.274 179.924,15.99 C178.190667,17.706 177.324,20.2973333 177.324,23.764 L177.324,36.4 L174.204,36.4 Z" id="Path" fill="#000000" fill-rule="nonzero"></path>
                <path d="M200.88,23.868 L200.88,23.244 C200.88,20.5746667 201.426,18.2866667 202.518,16.38 C203.61,14.4733333 205.074667,13 206.912,11.96 C208.749333,10.92 210.794667,10.4 213.048,10.4 C215.821333,10.4 217.979333,10.946 219.522,12.038 C221.064667,13.13 222.2,14.3693333 222.928,15.756 L223.552,15.756 L223.552,11.128 L226.464,11.128 L226.464,42.848 C226.464,44.096 226.134667,45.0666667 225.476,45.76 C224.817333,46.4533333 223.812,46.8 222.46,46.8 L205.196,46.8 L205.196,43.992 L221.836,43.992 C222.910667,43.992 223.448,43.472 223.448,42.432 L223.448,31.564 L222.824,31.564 C222.373333,32.396 221.740667,33.2106667 220.926,34.008 C220.111333,34.8053333 219.062667,35.4553333 217.78,35.958 C216.497333,36.4606667 214.92,36.712 213.048,36.712 C210.794667,36.712 208.740667,36.192 206.886,35.152 C205.031333,34.112 203.566667,32.63 202.492,30.706 C201.417333,28.782 200.88,26.5026667 200.88,23.868 Z M213.776,33.904 C216.653333,33.904 218.984667,33.0026667 220.77,31.2 C222.555333,29.3973333 223.448,26.9186667 223.448,23.764 L223.448,23.348 C223.448,20.1586667 222.555333,17.6713333 220.77,15.886 C218.984667,14.1006667 216.653333,13.208 213.776,13.208 C210.933333,13.208 208.610667,14.1006667 206.808,15.886 C205.005333,17.6713333 204.104,20.1586667 204.104,23.348 L204.104,23.764 C204.104,26.9186667 205.005333,29.3973333 206.808,31.2 C208.610667,33.0026667 210.933333,33.904 213.776,33.904 Z" id="Shape" fill="#000000" fill-rule="nonzero"></path>
                <path d="M243.364,37.128 C240.764,37.128 238.502,36.582 236.578,35.49 C234.654,34.398 233.154667,32.864 232.08,30.888 C231.005333,28.912 230.468,26.6413333 230.468,24.076 L230.468,23.452 C230.468,20.852 231.005333,18.5726667 232.08,16.614 C233.154667,14.6553333 234.636667,13.13 236.526,12.038 C238.415333,10.946 240.573333,10.4 243,10.4 C245.357333,10.4 247.446,10.894 249.266,11.882 C251.086,12.87 252.516,14.2913333 253.556,16.146 C254.596,18.0006667 255.116,20.2106667 255.116,22.776 L255.116,24.44 L233.588,24.44 C233.692,27.5946667 234.654,30.03 236.474,31.746 C238.294,33.462 240.590667,34.32 243.364,34.32 C245.721333,34.32 247.55,33.7826667 248.85,32.708 C250.15,31.6333333 251.146667,30.316 251.84,28.756 L254.648,30.004 C254.128,31.148 253.408667,32.266 252.49,33.358 C251.571333,34.45 250.384,35.3513333 248.928,36.062 C247.472,36.7726667 245.617333,37.128 243.364,37.128 Z M233.64,21.736 L251.944,21.736 C251.805333,18.9973333 250.921333,16.8913333 249.292,15.418 C247.662667,13.9446667 245.565333,13.208 243,13.208 C240.469333,13.208 238.372,13.9446667 236.708,15.418 C235.044,16.8913333 234.021333,18.9973333 233.64,21.736 Z" id="Shape" fill="#000000" fill-rule="nonzero"></path>
                <polygon id="Path" fill="#000000" fill-rule="nonzero" points="258.912 36.4 258.912 9.09494702e-13 262.032 9.09494702e-13 262.032 36.4"></polygon>
                <path d="M278.204,37.128 C275.950667,37.128 273.905333,36.5993333 272.068,35.542 C270.230667,34.4846667 268.766,32.9766667 267.674,31.018 C266.582,29.0593333 266.036,26.7453333 266.036,24.076 L266.036,23.452 C266.036,20.7826667 266.573333,18.4686667 267.648,16.51 C268.722667,14.5513333 270.187333,13.0433333 272.042,11.986 C273.896667,10.9286667 275.950667,10.4 278.204,10.4 C280.076,10.4 281.653333,10.6513333 282.936,11.154 C284.218667,11.6566667 285.267333,12.298 286.082,13.078 C286.896667,13.858 287.529333,14.6813333 287.98,15.548 L288.604,15.548 L288.604,0 L291.724,0 L291.724,36.4 L288.708,36.4 L288.708,31.772 L288.084,31.772 C287.356,33.1586667 286.220667,34.398 284.678,35.49 C283.135333,36.582 280.977333,37.128 278.204,37.128 Z M278.932,34.32 C281.809333,34.32 284.140667,33.4013333 285.926,31.564 C287.711333,29.7266667 288.604,27.196 288.604,23.972 L288.604,23.556 C288.604,20.332 287.711333,17.8013333 285.926,15.964 C284.140667,14.1266667 281.809333,13.208 278.932,13.208 C276.089333,13.208 273.766667,14.1266667 271.964,15.964 C270.161333,17.8013333 269.26,20.332 269.26,23.556 L269.26,23.972 C269.26,27.196 270.161333,29.7266667 271.964,31.564 C273.766667,33.4013333 276.089333,34.32 278.932,34.32 Z" id="Shape" fill="#000000" fill-rule="nonzero"></path>
                <polygon id="Path" fill="#000000" fill-rule="nonzero" points="305.348 36.4 305.348 9.09494702e-13 312.212 9.09494702e-13 312.212 15.028 325.732 15.028 325.732 9.09494702e-13 332.596 9.09494702e-13 332.596 36.4 325.732 36.4 325.732 21.268 312.212 21.268 312.212 36.4"></polygon>
                <path d="M347.52,37.128 C344.954667,37.128 342.692667,36.582 340.734,35.49 C338.775333,34.398 337.25,32.8553333 336.158,30.862 C335.066,28.8686667 334.52,26.52 334.52,23.816 L334.52,23.192 C334.52,20.488 335.057333,18.1393333 336.132,16.146 C337.206667,14.1526667 338.714667,12.61 340.656,11.518 C342.597333,10.426 344.850667,9.88 347.416,9.88 C349.946667,9.88 352.148,10.4433333 354.02,11.57 C355.892,12.6966667 357.348,14.2566667 358.388,16.25 C359.428,18.2433333 359.948,20.5573333 359.948,23.192 L359.948,25.428 L341.176,25.428 C341.245333,27.196 341.904,28.6346667 343.152,29.744 C344.4,30.8533333 345.925333,31.408 347.728,31.408 C349.565333,31.408 350.917333,31.0093333 351.784,30.212 C352.650667,29.4146667 353.309333,28.5306667 353.76,27.56 L359.116,30.368 C358.630667,31.2693333 357.928667,32.2486667 357.01,33.306 C356.091333,34.3633333 354.869333,35.2646667 353.344,36.01 C351.818667,36.7553333 349.877333,37.128 347.52,37.128 Z M341.228,20.54 L353.292,20.54 C353.153333,19.0493333 352.555333,17.8533333 351.498,16.952 C350.440667,16.0506667 349.062667,15.6 347.364,15.6 C345.596,15.6 344.192,16.0506667 343.152,16.952 C342.112,17.8533333 341.470667,19.0493333 341.228,20.54 Z" id="Shape" fill="#000000" fill-rule="nonzero"></path>
                <polygon id="Path" fill="#000000" fill-rule="nonzero" points="361.872 36.4 361.872 9.09494702e-13 368.424 9.09494702e-13 368.424 36.4"></polygon>
                <path d="M371.804,46.8 L371.804,10.608 L378.252,10.608 L378.252,13.728 L379.188,13.728 C379.777333,12.7226667 380.696,11.83 381.944,11.05 C383.192,10.27 384.977333,9.88 387.3,9.88 C389.38,9.88 391.304,10.3913333 393.072,11.414 C394.84,12.4366667 396.261333,13.936 397.336,15.912 C398.410667,17.888 398.948,20.28 398.948,23.088 L398.948,23.92 C398.948,26.728 398.410667,29.12 397.336,31.096 C396.261333,33.072 394.84,34.5713333 393.072,35.594 C391.304,36.6166667 389.38,37.128 387.3,37.128 C385.74,37.128 384.431333,36.946 383.374,36.582 C382.316667,36.218 381.467333,35.75 380.826,35.178 C380.184667,34.606 379.673333,34.0253333 379.292,33.436 L378.356,33.436 L378.356,46.8 L371.804,46.8 Z M385.324,31.408 C387.369333,31.408 389.059333,30.758 390.394,29.458 C391.728667,28.158 392.396,26.26 392.396,23.764 L392.396,23.244 C392.396,20.748 391.72,18.85 390.368,17.55 C389.016,16.25 387.334667,15.6 385.324,15.6 C383.313333,15.6 381.632,16.25 380.28,17.55 C378.928,18.85 378.252,20.748 378.252,23.244 L378.252,23.764 C378.252,26.26 378.928,28.158 380.28,29.458 C381.632,30.758 383.313333,31.408 385.324,31.408 Z" id="Shape" fill="#000000" fill-rule="nonzero"></path>
            </g>
        </g>
    </g>
</svg>