<?xml version="1.0" encoding="UTF-8"?>
<svg width="370px" height="64px" viewBox="0 0 370 64" version="1.1" xmlns="http://www.w3.org/2000/svg" xmlns:xlink="http://www.w3.org/1999/xlink">
    <title>Group 3</title>
    <g id="Eltern-Helper" stroke="none" stroke-width="1" fill="none" fill-rule="evenodd">
        <g id="Artboard" transform="translate(-914.000000, -325.000000)">
            <g id="Group-3" transform="translate(914.000000, 325.000000)">
                <text id="Elterngeld" font-family="SpaceGrotesk-Light, Space Grotesk" font-size="40" font-weight="300" letter-spacing="-3" fill="#000000">
                    <tspan x="85" y="44">Elterngeld</tspan>
                </text>
                <text id="Helper" font-family="SpaceGrotesk-Light_Bold, Space Grotesk" font-size="40" font-weight="bold" letter-spacing="-2" fill="#000000">
                    <tspan x="256" y="44">Helper</tspan>
                </text>
                <g id="Group-2">
                    <g id="noun-text-7993198" fill-rule="nonzero">
                        <path d="M44.6409119,12.8817915 L48.142411,14.1166314 C48.8427108,14.3510909 49.3773397,14.8825282 49.6430534,15.5827536 L51.0780678,19.2496598 C51.5126298,20.3156395 52.4786674,20.8502299 53.444681,20.8502299 C54.4106946,20.8502299 55.3799095,20.3156635 55.8112942,19.2496598 L57.2463086,15.5827536 C57.5120463,14.8825042 58.081066,14.3479138 58.746951,14.1166314 L62.2484501,12.8817915 C64.4838071,12.0815065 64.4838071,8.91477847 62.2484501,8.11449341 L58.746951,6.87965356 C58.0466512,6.64519404 57.5120223,6.11375674 57.2463086,5.41353132 L55.8112942,1.74662516 C55.3767322,0.68064545 54.4106946,0.146055027 53.444681,0.146055027 C52.4786674,0.146055027 51.5094525,0.680621441 51.0780678,1.74662516 L49.6430534,5.41353132 C49.3773157,6.11378075 48.8082961,6.64837117 48.142411,6.87965356 L44.6409119,8.11449341 C42.4055549,8.91477847 42.4055549,12.0815065 44.6409119,12.8817915 Z" id="Path" fill="#000205"></path>
                        <path d="M62.8487071,31.3539714 L60.4476792,30.5192741 C59.9818557,30.353591 59.5817084,29.9847076 59.4128361,29.5189177 L58.4468225,27.0180269 C58.1466941,26.2833892 57.5120223,25.9176349 56.8461373,25.9176349 C56.1802522,25.9176349 55.5111657,26.2833892 55.245452,27.0180269 L54.2794384,29.5189177 C54.1137434,29.9847076 53.7135721,30.3536151 53.2445953,30.5192741 L50.8435674,31.3539714 C49.3085102,31.8885378 49.3085102,34.0549335 50.8435674,34.620735 L53.2445953,35.4554323 C53.7104188,35.6211154 54.1105661,35.9899988 54.2794384,36.4557887 L55.245452,38.9566795 C55.5455805,39.6913172 56.1802522,40.0570715 56.8461373,40.0570715 C57.5120223,40.0570715 58.1811088,39.6913172 58.4468225,38.9566795 L59.4128361,36.4557887 C59.5785311,35.9899988 59.9787024,35.6210913 60.4476792,35.4554323 L62.8487071,34.620735 C64.3837643,34.0861686 64.3837643,31.9197729 62.8487071,31.3539714 Z" id="Path" fill="#000205"></path>
                        <path d="M6.88769823,7.23029165 C14.4820462,0.862691801 29.4270573,-0.373230141 40.2476693,1.00814955 C40.7909134,1.07402151 41.254128,1.35954658 41.5663221,1.76316708 C41.8826114,2.17208213 42.0447429,2.70249324 41.9780211,3.25258702 C41.9118093,3.79855534 41.6171816,4.27006428 41.2080877,4.58644637 C40.8011753,4.90114147 40.2784286,5.0642781 39.7472921,4.98467704 C27.9353312,3.46178758 15.2145922,5.60264613 9.91172597,9.89212368 C6.2520896,14.3982521 4.42470839,23.2176976 4.42470839,32.0515199 C4.42470839,40.885922 6.25251493,49.6969582 9.83806341,54.1115908 C14.3439013,57.77021 23.1639642,59.5974537 31.9983993,59.5974537 C40.8334143,59.5974537 49.6450673,57.7697847 54.0600075,54.1845023 C55.6711801,52.1633504 57.0088513,49.2016387 57.9658092,45.514924 C58.0984114,44.9858314 58.4423531,44.5634517 58.8801927,44.3037448 C59.3249421,44.0399393 59.8682577,43.9422771 60.39634,44.0780756 C60.9284581,44.209825 61.3536212,44.5470718 61.6133727,44.9836858 C61.8758159,45.424824 61.9698393,45.9673111 61.8364568,46.499629 C60.6970611,50.8981464 59.1089357,54.361478 57.0580831,56.8132393 C51.6491173,61.4030054 41.8191842,63.5 31.9730885,63.5 C22.1234978,63.5 12.2858205,61.3996761 7.17765803,57.1026237 C2.60644481,51.6967794 0.5,41.8511676 0.5,32.0226096 C0.5,22.1910982 2.60642637,12.3406548 6.88769823,7.23029165 Z" id="Path" stroke="#FFFFFF" fill="#000000"></path>
                    </g>
                    <rect id="Rectangle" stroke="#FFFAFA" stroke-width="0.8" fill="#000000" x="12.3613209" y="23.676054" width="28.8126779" height="4.28547009" rx="2.14273504"></rect>
                    <rect id="Rectangle-Copy" stroke="#FFFAFA" stroke-width="0.8" fill="#000000" x="12.3613209" y="34.5905839" width="19.2" height="4.28547009" rx="2.14273504"></rect>
                </g>
            </g>
        </g>
    </g>
</svg>