<?xml version="1.0" encoding="UTF-8"?>
<svg width="370px" height="64px" viewBox="0 0 370 64" version="1.1" xmlns="http://www.w3.org/2000/svg" xmlns:xlink="http://www.w3.org/1999/xlink">
    <title>Group 3</title>
    <g id="Eltern-Helper" stroke="none" stroke-width="1" fill="none" fill-rule="evenodd">
        <g id="Artboard" transform="translate(-914.000000, -325.000000)">
            <g id="Group-3" transform="translate(914.000000, 325.000000)">
                <g id="Elterngeld" transform="translate(88.440000, 16.000000)" fill="#000000" fill-rule="nonzero">
                    <polygon id="Path" points="0 28 0 0 16.92 0 16.92 2.32 2.56 2.32 2.56 12.8 15.8 12.8 15.8 15.12 2.56 15.12 2.56 25.68 17.08 25.68 17.08 28"></polygon>
                    <polygon id="Path" points="19.76 28 19.76 0 22.16 0 22.16 28"></polygon>
                    <path d="M33.24,28 C32.2,28 31.42,27.7333333 30.9,27.2 C30.38,26.6666667 30.12,25.92 30.12,24.96 L30.12,10.72 L23.88,10.72 L23.88,8.56 L30.12,8.56 L30.12,1.28 L32.52,1.28 L32.52,8.56 L39.32,8.56 L39.32,10.72 L32.52,10.72 L32.52,24.64 C32.52,25.44 32.92,25.84 33.72,25.84 L38.28,25.84 L38.28,28 L33.24,28 Z" id="Path"></path>
                    <path d="M49.92,28.56 C47.92,28.56 46.18,28.14 44.7,27.3 C43.22,26.46 42.0666667,25.28 41.24,23.76 C40.4133333,22.24 40,20.4933333 40,18.52 L40,18.04 C40,16.04 40.4133333,14.2866667 41.24,12.78 C42.0666667,11.2733333 43.2066667,10.1 44.66,9.26 C46.1133333,8.42 47.7733333,8 49.64,8 C51.4533333,8 53.06,8.38 54.46,9.14 C55.86,9.9 56.96,10.9933333 57.76,12.42 C58.56,13.8466667 58.96,15.5466667 58.96,17.52 L58.96,18.8 L42.4,18.8 C42.48,21.2266667 43.22,23.1 44.62,24.42 C46.02,25.74 47.7866667,26.4 49.92,26.4 C51.7333333,26.4 53.14,25.9866667 54.14,25.16 C55.14,24.3333333 55.9066667,23.32 56.44,22.12 L58.6,23.08 C58.2,23.96 57.6466667,24.82 56.94,25.66 C56.2333333,26.5 55.32,27.1933333 54.2,27.74 C53.08,28.2866667 51.6533333,28.56 49.92,28.56 Z M42.44,16.72 L56.52,16.72 C56.4133333,14.6133333 55.7333333,12.9933333 54.48,11.86 C53.2266667,10.7266667 51.6133333,10.16 49.64,10.16 C47.6933333,10.16 46.08,10.7266667 44.8,11.86 C43.52,12.9933333 42.7333333,14.6133333 42.44,16.72 Z" id="Shape"></path>
                    <path d="M61.88,28 L61.88,8.56 L64.2,8.56 L64.2,11 L64.68,11 C65.0533333,10.12 65.6066667,9.48 66.34,9.08 C67.0733333,8.68 68.0933333,8.48 69.4,8.48 L71.68,8.48 L71.68,10.72 L69.12,10.72 C67.6533333,10.72 66.48,11.1333333 65.6,11.96 C64.72,12.7866667 64.28,14.08 64.28,15.84 L64.28,28 L61.88,28 Z" id="Path"></path>
                    <path d="M73.64,28 L73.64,8.56 L75.96,8.56 L75.96,12.16 L76.44,12.16 C76.92,11.12 77.7066667,10.1933333 78.8,9.38 C79.8933333,8.56666667 81.48,8.16 83.56,8.16 C84.9733333,8.16 86.2666667,8.45333333 87.44,9.04 C88.6133333,9.62666667 89.5533333,10.5133333 90.26,11.7 C90.9666667,12.8866667 91.32,14.3733333 91.32,16.16 L91.32,28 L88.92,28 L88.92,16.32 C88.92,14.1866667 88.3866667,12.6533333 87.32,11.72 C86.2533333,10.7866667 84.8266667,10.32 83.04,10.32 C81.04,10.32 79.3733333,10.98 78.04,12.3 C76.7066667,13.62 76.04,15.6133333 76.04,18.28 L76.04,28 L73.64,28 Z" id="Path"></path>
                    <path d="M94.16,18.36 L94.16,17.88 C94.16,15.8266667 94.58,14.0666667 95.42,12.6 C96.26,11.1333333 97.3866667,10 98.8,9.2 C100.213333,8.4 101.786667,8 103.52,8 C105.653333,8 107.313333,8.42 108.5,9.26 C109.686667,10.1 110.56,11.0533333 111.12,12.12 L111.6,12.12 L111.6,8.56 L113.84,8.56 L113.84,32.96 C113.84,33.92 113.586667,34.6666667 113.08,35.2 C112.573333,35.7333333 111.8,36 110.76,36 L97.48,36 L97.48,33.84 L110.28,33.84 C111.106667,33.84 111.52,33.44 111.52,32.64 L111.52,24.28 L111.04,24.28 C110.693333,24.92 110.206667,25.5466667 109.58,26.16 C108.953333,26.7733333 108.146667,27.2733333 107.16,27.66 C106.173333,28.0466667 104.96,28.24 103.52,28.24 C101.786667,28.24 100.206667,27.84 98.78,27.04 C97.3533333,26.24 96.2266667,25.1 95.4,23.62 C94.5733333,22.14 94.16,20.3866667 94.16,18.36 Z M104.08,26.08 C106.293333,26.08 108.086667,25.3866667 109.46,24 C110.833333,22.6133333 111.52,20.7066667 111.52,18.28 L111.52,17.96 C111.52,15.5066667 110.833333,13.5933333 109.46,12.22 C108.086667,10.8466667 106.293333,10.16 104.08,10.16 C101.893333,10.16 100.106667,10.8466667 98.72,12.22 C97.3333333,13.5933333 96.64,15.5066667 96.64,17.96 L96.64,18.28 C96.64,20.7066667 97.3333333,22.6133333 98.72,24 C100.106667,25.3866667 101.893333,26.08 104.08,26.08 Z" id="Shape"></path>
                    <path d="M126.84,28.56 C124.84,28.56 123.1,28.14 121.62,27.3 C120.14,26.46 118.986667,25.28 118.16,23.76 C117.333333,22.24 116.92,20.4933333 116.92,18.52 L116.92,18.04 C116.92,16.04 117.333333,14.2866667 118.16,12.78 C118.986667,11.2733333 120.126667,10.1 121.58,9.26 C123.033333,8.42 124.693333,8 126.56,8 C128.373333,8 129.98,8.38 131.38,9.14 C132.78,9.9 133.88,10.9933333 134.68,12.42 C135.48,13.8466667 135.88,15.5466667 135.88,17.52 L135.88,18.8 L119.32,18.8 C119.4,21.2266667 120.14,23.1 121.54,24.42 C122.94,25.74 124.706667,26.4 126.84,26.4 C128.653333,26.4 130.06,25.9866667 131.06,25.16 C132.06,24.3333333 132.826667,23.32 133.36,22.12 L135.52,23.08 C135.12,23.96 134.566667,24.82 133.86,25.66 C133.153333,26.5 132.24,27.1933333 131.12,27.74 C130,28.2866667 128.573333,28.56 126.84,28.56 Z M119.36,16.72 L133.44,16.72 C133.333333,14.6133333 132.653333,12.9933333 131.4,11.86 C130.146667,10.7266667 128.533333,10.16 126.56,10.16 C124.613333,10.16 123,10.7266667 121.72,11.86 C120.44,12.9933333 119.653333,14.6133333 119.36,16.72 Z" id="Shape"></path>
                    <polygon id="Path" points="138.8 28 138.8 0 141.2 0 141.2 28"></polygon>
                    <path d="M153.64,28.56 C151.906667,28.56 150.333333,28.1533333 148.92,27.34 C147.506667,26.5266667 146.38,25.3666667 145.54,23.86 C144.7,22.3533333 144.28,20.5733333 144.28,18.52 L144.28,18.04 C144.28,15.9866667 144.693333,14.2066667 145.52,12.7 C146.346667,11.1933333 147.473333,10.0333333 148.9,9.22 C150.326667,8.40666667 151.906667,8 153.64,8 C155.08,8 156.293333,8.19333333 157.28,8.58 C158.266667,8.96666667 159.073333,9.46 159.7,10.06 C160.326667,10.66 160.813333,11.2933333 161.16,11.96 L161.64,11.96 L161.64,0 L164.04,0 L164.04,28 L161.72,28 L161.72,24.44 L161.24,24.44 C160.68,25.5066667 159.806667,26.46 158.62,27.3 C157.433333,28.14 155.773333,28.56 153.64,28.56 Z M154.2,26.4 C156.413333,26.4 158.206667,25.6933333 159.58,24.28 C160.953333,22.8666667 161.64,20.92 161.64,18.44 L161.64,18.12 C161.64,15.64 160.953333,13.6933333 159.58,12.28 C158.206667,10.8666667 156.413333,10.16 154.2,10.16 C152.013333,10.16 150.226667,10.8666667 148.84,12.28 C147.453333,13.6933333 146.76,15.64 146.76,18.12 L146.76,18.44 C146.76,20.92 147.453333,22.8666667 148.84,24.28 C150.226667,25.6933333 152.013333,26.4 154.2,26.4 Z" id="Shape"></path>
                </g>
                <g id="Helper" transform="translate(258.640000, 16.000000)" fill="#000000" fill-rule="nonzero">
                    <polygon id="Path" points="0 28 0 0 5.28 0 5.28 11.56 15.68 11.56 15.68 0 20.96 0 20.96 28 15.68 28 15.68 16.36 5.28 16.36 5.28 28"></polygon>
                    <path d="M33.44,28.56 C31.4666667,28.56 29.7266667,28.14 28.22,27.3 C26.7133333,26.46 25.54,25.2733333 24.7,23.74 C23.86,22.2066667 23.44,20.4 23.44,18.32 L23.44,17.84 C23.44,15.76 23.8533333,13.9533333 24.68,12.42 C25.5066667,10.8866667 26.6666667,9.7 28.16,8.86 C29.6533333,8.02 31.3866667,7.6 33.36,7.6 C35.3066667,7.6 37,8.03333333 38.44,8.9 C39.88,9.76666667 41,10.9666667 41.8,12.5 C42.6,14.0333333 43,15.8133333 43,17.84 L43,19.56 L28.56,19.56 C28.6133333,20.92 29.12,22.0266667 30.08,22.88 C31.04,23.7333333 32.2133333,24.16 33.6,24.16 C35.0133333,24.16 36.0533333,23.8533333 36.72,23.24 C37.3866667,22.6266667 37.8933333,21.9466667 38.24,21.2 L42.36,23.36 C41.9866667,24.0533333 41.4466667,24.8066667 40.74,25.62 C40.0333333,26.4333333 39.0933333,27.1266667 37.92,27.7 C36.7466667,28.2733333 35.2533333,28.56 33.44,28.56 Z M28.6,15.8 L37.88,15.8 C37.7733333,14.6533333 37.3133333,13.7333333 36.5,13.04 C35.6866667,12.3466667 34.6266667,12 33.32,12 C31.96,12 30.88,12.3466667 30.08,13.04 C29.28,13.7333333 28.7866667,14.6533333 28.6,15.8 Z" id="Shape"></path>
                    <polygon id="Path" points="45.48 28 45.48 0 50.52 0 50.52 28"></polygon>
                    <path d="M54.12,36 L54.12,8.16 L59.08,8.16 L59.08,10.56 L59.8,10.56 C60.2533333,9.78666667 60.96,9.1 61.92,8.5 C62.88,7.9 64.2533333,7.6 66.04,7.6 C67.64,7.6 69.12,7.99333333 70.48,8.78 C71.84,9.56666667 72.9333333,10.72 73.76,12.24 C74.5866667,13.76 75,15.6 75,17.76 L75,18.4 C75,20.56 74.5866667,22.4 73.76,23.92 C72.9333333,25.44 71.84,26.5933333 70.48,27.38 C69.12,28.1666667 67.64,28.56 66.04,28.56 C64.84,28.56 63.8333333,28.42 63.02,28.14 C62.2066667,27.86 61.5533333,27.5 61.06,27.06 C60.5666667,26.62 60.1733333,26.1733333 59.88,25.72 L59.16,25.72 L59.16,36 L54.12,36 Z M64.52,24.16 C66.0933333,24.16 67.3933333,23.66 68.42,22.66 C69.4466667,21.66 69.96,20.2 69.96,18.28 L69.96,17.88 C69.96,15.96 69.44,14.5 68.4,13.5 C67.36,12.5 66.0666667,12 64.52,12 C62.9733333,12 61.68,12.5 60.64,13.5 C59.6,14.5 59.08,15.96 59.08,17.88 L59.08,18.28 C59.08,20.2 59.6,21.66 60.64,22.66 C61.68,23.66 62.9733333,24.16 64.52,24.16 Z" id="Shape"></path>
                    <path d="M86.68,28.56 C84.7066667,28.56 82.9666667,28.14 81.46,27.3 C79.9533333,26.46 78.78,25.2733333 77.94,23.74 C77.1,22.2066667 76.68,20.4 76.68,18.32 L76.68,17.84 C76.68,15.76 77.0933333,13.9533333 77.92,12.42 C78.7466667,10.8866667 79.9066667,9.7 81.4,8.86 C82.8933333,8.02 84.6266667,7.6 86.6,7.6 C88.5466667,7.6 90.24,8.03333333 91.68,8.9 C93.12,9.76666667 94.24,10.9666667 95.04,12.5 C95.84,14.0333333 96.24,15.8133333 96.24,17.84 L96.24,19.56 L81.8,19.56 C81.8533333,20.92 82.36,22.0266667 83.32,22.88 C84.28,23.7333333 85.4533333,24.16 86.84,24.16 C88.2533333,24.16 89.2933333,23.8533333 89.96,23.24 C90.6266667,22.6266667 91.1333333,21.9466667 91.48,21.2 L95.6,23.36 C95.2266667,24.0533333 94.6866667,24.8066667 93.98,25.62 C93.2733333,26.4333333 92.3333333,27.1266667 91.16,27.7 C89.9866667,28.2733333 88.4933333,28.56 86.68,28.56 Z M81.84,15.8 L91.12,15.8 C91.0133333,14.6533333 90.5533333,13.7333333 89.74,13.04 C88.9266667,12.3466667 87.8666667,12 86.56,12 C85.2,12 84.12,12.3466667 83.32,13.04 C82.52,13.7333333 82.0266667,14.6533333 81.84,15.8 Z" id="Shape"></path>
                    <path d="M98.72,28 L98.72,8.16 L103.68,8.16 L103.68,10.4 L104.4,10.4 C104.693333,9.6 105.18,9.01333333 105.86,8.64 C106.54,8.26666667 107.333333,8.08 108.24,8.08 L110.64,8.08 L110.64,12.56 L108.16,12.56 C106.88,12.56 105.826667,12.9 105,13.58 C104.173333,14.26 103.76,15.3066667 103.76,16.72 L103.76,28 L98.72,28 Z" id="Path"></path>
                </g>
                <g id="Group-2">
                    <g id="noun-text-7993198" fill-rule="nonzero">
                        <path d="M44.6409119,12.8817915 L48.142411,14.1166314 C48.8427108,14.3510909 49.3773397,14.8825282 49.6430534,15.5827536 L51.0780678,19.2496598 C51.5126298,20.3156395 52.4786674,20.8502299 53.444681,20.8502299 C54.4106946,20.8502299 55.3799095,20.3156635 55.8112942,19.2496598 L57.2463086,15.5827536 C57.5120463,14.8825042 58.081066,14.3479138 58.746951,14.1166314 L62.2484501,12.8817915 C64.4838071,12.0815065 64.4838071,8.91477847 62.2484501,8.11449341 L58.746951,6.87965356 C58.0466512,6.64519404 57.5120223,6.11375674 57.2463086,5.41353132 L55.8112942,1.74662516 C55.3767322,0.68064545 54.4106946,0.146055027 53.444681,0.146055027 C52.4786674,0.146055027 51.5094525,0.680621441 51.0780678,1.74662516 L49.6430534,5.41353132 C49.3773157,6.11378075 48.8082961,6.64837117 48.142411,6.87965356 L44.6409119,8.11449341 C42.4055549,8.91477847 42.4055549,12.0815065 44.6409119,12.8817915 Z" id="Path" fill="#000205"></path>
                        <path d="M62.8487071,31.3539714 L60.4476792,30.5192741 C59.9818557,30.353591 59.5817084,29.9847076 59.4128361,29.5189177 L58.4468225,27.0180269 C58.1466941,26.2833892 57.5120223,25.9176349 56.8461373,25.9176349 C56.1802522,25.9176349 55.5111657,26.2833892 55.245452,27.0180269 L54.2794384,29.5189177 C54.1137434,29.9847076 53.7135721,30.3536151 53.2445953,30.5192741 L50.8435674,31.3539714 C49.3085102,31.8885378 49.3085102,34.0549335 50.8435674,34.620735 L53.2445953,35.4554323 C53.7104188,35.6211154 54.1105661,35.9899988 54.2794384,36.4557887 L55.245452,38.9566795 C55.5455805,39.6913172 56.1802522,40.0570715 56.8461373,40.0570715 C57.5120223,40.0570715 58.1811088,39.6913172 58.4468225,38.9566795 L59.4128361,36.4557887 C59.5785311,35.9899988 59.9787024,35.6210913 60.4476792,35.4554323 L62.8487071,34.620735 C64.3837643,34.0861686 64.3837643,31.9197729 62.8487071,31.3539714 Z" id="Path" fill="#000205"></path>
                        <path d="M6.88769823,7.23029165 C14.4820462,0.862691801 29.4270573,-0.373230141 40.2476693,1.00814955 C40.7909134,1.07402151 41.254128,1.35954658 41.5663221,1.76316708 C41.8826114,2.17208213 42.0447429,2.70249324 41.9780211,3.25258702 C41.9118093,3.79855534 41.6171816,4.27006428 41.2080877,4.58644637 C40.8011753,4.90114147 40.2784286,5.0642781 39.7472921,4.98467704 C27.9353312,3.46178758 15.2145922,5.60264613 9.91172597,9.89212368 C6.2520896,14.3982521 4.42470839,23.2176976 4.42470839,32.0515199 C4.42470839,40.885922 6.25251493,49.6969582 9.83806341,54.1115908 C14.3439013,57.77021 23.1639642,59.5974537 31.9983993,59.5974537 C40.8334143,59.5974537 49.6450673,57.7697847 54.0600075,54.1845023 C55.6711801,52.1633504 57.0088513,49.2016387 57.9658092,45.514924 C58.0984114,44.9858314 58.4423531,44.5634517 58.8801927,44.3037448 C59.3249421,44.0399393 59.8682577,43.9422771 60.39634,44.0780756 C60.9284581,44.209825 61.3536212,44.5470718 61.6133727,44.9836858 C61.8758159,45.424824 61.9698393,45.9673111 61.8364568,46.499629 C60.6970611,50.8981464 59.1089357,54.361478 57.0580831,56.8132393 C51.6491173,61.4030054 41.8191842,63.5 31.9730885,63.5 C22.1234978,63.5 12.2858205,61.3996761 7.17765803,57.1026237 C2.60644481,51.6967794 0.5,41.8511676 0.5,32.0226096 C0.5,22.1910982 2.60642637,12.3406548 6.88769823,7.23029165 Z" id="Path" stroke="#FFFFFF" fill="#000000"></path>
                    </g>
                    <rect id="Rectangle" stroke="#FFFAFA" stroke-width="0.8" fill="#000000" x="12.3613209" y="23.676054" width="28.8126779" height="4.28547009" rx="2.14273504"></rect>
                    <rect id="Rectangle-Copy" stroke="#FFFAFA" stroke-width="0.8" fill="#000000" x="12.3613209" y="34.5905839" width="19.2" height="4.28547009" rx="2.14273504"></rect>
                </g>
            </g>
        </g>
    </g>
</svg>